{"glyphs":{"0":{"ha":729,"x_min":61,"x_max":668,"o":"m 547 607 q 537 654 547 632 q 511 693 528 677 q 472 720 494 710 q 425 729 450 729 l 304 729 q 257 720 279 729 q 218 693 235 710 q 192 654 201 677 q 182 607 182 632 l 182 364 q 192 317 182 339 q 218 278 201 295 q 257 252 235 262 q 304 243 279 243 l 425 243 q 473 252 451 243 q 512 278 496 262 q 538 316 528 294 q 547 364 547 338 l 547 607 m 668 243 q 651 149 668 192 q 597 71 634 106 q 425 0 526 0 l 304 0 q 131 71 203 0 q 78 150 95 106 q 61 243 61 193 l 61 729 q 131 900 61 830 q 211 954 168 936 q 304 972 254 972 l 425 972 q 518 954 475 972 q 597 900 561 936 q 668 729 668 828 l 668 243 z "},"1":{"ha":729,"x_min":243,"x_max":486,"o":"m 243 0 l 243 243 l 304 243 l 304 729 l 243 729 l 243 972 l 425 972 l 425 243 l 486 243 l 486 0 l 243 0 z "},"2":{"ha":729,"x_min":61,"x_max":668,"o":"m 61 0 l 61 304 q 132 475 61 404 q 304 547 203 547 l 395 547 q 430 554 413 547 q 459 574 446 562 q 479 602 471 586 q 486 637 486 618 q 479 673 486 656 q 459 702 471 690 q 430 722 446 715 q 395 729 413 729 l 61 729 l 61 972 l 425 972 q 518 954 475 972 q 597 900 561 936 q 668 729 668 828 l 668 668 q 597 497 668 569 q 518 444 561 462 q 425 425 475 425 l 273 425 q 238 418 255 425 q 209 398 222 410 q 189 370 197 386 q 182 335 182 353 l 182 243 l 668 243 l 668 0 l 61 0 z "},"3":{"ha":729,"x_min":61,"x_max":668,"o":"m 668 243 q 597 72 668 144 q 425 0 525 0 l 61 0 l 61 243 l 395 243 q 430 250 413 243 q 459 270 446 258 q 479 299 471 283 q 486 335 486 316 q 479 370 486 353 q 459 398 471 386 q 430 418 446 410 q 395 425 413 425 l 182 425 l 182 547 l 395 547 q 430 554 413 547 q 459 574 446 562 q 479 602 471 586 q 486 637 486 618 q 479 673 486 656 q 459 702 471 690 q 430 722 446 715 q 395 729 413 729 l 61 729 l 61 972 l 425 972 q 518 954 475 972 q 597 900 561 936 q 668 729 668 828 l 668 717 q 656 642 668 678 q 621 575 645 606 q 568 520 597 543 q 500 486 538 498 q 571 450 540 473 q 624 394 603 426 q 657 323 646 362 q 668 243 668 285 z "},"4":{"ha":729,"x_min":61,"x_max":668,"o":"m 547 0 l 547 170 l 61 170 l 61 729 l 182 729 l 182 412 l 547 412 l 547 972 l 668 972 l 668 0 l 547 0 z "},"5":{"ha":729,"x_min":61,"x_max":668,"o":"m 668 243 q 597 72 668 144 q 425 0 525 0 l 61 0 l 61 243 l 395 243 q 430 250 413 243 q 459 270 446 258 q 479 299 471 283 q 486 335 486 316 q 479 370 486 353 q 459 398 471 386 q 430 418 446 410 q 395 425 413 425 l 61 425 l 61 972 l 607 972 l 607 729 l 182 729 l 182 547 l 425 547 q 518 529 475 547 q 597 475 561 511 q 668 304 668 404 l 668 243 z "},"6":{"ha":729,"x_min":61,"x_max":668,"o":"m 547 335 q 540 370 547 353 q 520 398 532 386 q 491 418 507 410 q 456 425 474 425 l 273 425 q 238 418 255 425 q 209 398 222 410 q 189 370 197 386 q 182 335 182 353 q 189 299 182 316 q 209 270 197 283 q 238 250 222 258 q 273 243 255 243 l 456 243 q 491 250 474 243 q 520 270 507 258 q 540 299 532 283 q 547 335 547 316 m 668 243 q 651 149 668 192 q 597 71 634 106 q 425 0 526 0 l 304 0 q 132 72 202 0 q 61 243 61 143 l 61 729 q 131 901 61 832 q 304 972 203 972 l 607 972 l 607 729 l 304 729 q 256 720 278 729 q 217 694 233 710 q 191 655 201 677 q 182 607 182 633 l 182 450 q 190 488 182 470 q 211 518 197 505 q 242 539 224 532 q 279 547 260 547 l 425 547 q 518 529 475 547 q 597 475 561 511 q 668 304 668 404 l 668 243 z "},"7":{"ha":729,"x_min":61,"x_max":668,"o":"m 231 0 l 61 0 l 498 729 l 61 729 l 61 972 l 668 972 l 668 729 l 231 0 z "},"8":{"ha":729,"x_min":61,"x_max":668,"o":"m 547 335 q 540 370 547 353 q 520 398 532 386 q 491 418 507 410 q 456 425 474 425 l 273 425 q 238 418 255 425 q 209 398 222 410 q 189 370 197 386 q 182 335 182 353 q 189 299 182 316 q 209 270 197 283 q 238 250 222 258 q 273 243 255 243 l 456 243 q 491 250 474 243 q 520 270 507 258 q 540 299 532 283 q 547 335 547 316 m 547 637 q 540 673 547 656 q 520 702 532 690 q 491 722 507 715 q 456 729 474 729 l 273 729 q 238 722 255 729 q 209 702 222 715 q 189 673 197 690 q 182 637 182 656 q 189 602 182 618 q 209 574 197 586 q 238 554 222 562 q 273 547 255 547 l 456 547 q 491 554 474 547 q 520 574 507 562 q 540 602 532 586 q 547 637 547 618 m 668 243 q 651 149 668 192 q 597 71 634 106 q 425 0 526 0 l 304 0 q 131 71 203 0 q 78 149 95 106 q 61 243 61 192 l 61 279 q 176 486 61 415 q 61 693 61 557 l 61 729 q 131 901 61 832 q 304 972 203 972 l 425 972 q 597 901 526 972 q 651 823 634 866 q 668 729 668 781 l 668 693 q 553 486 668 557 q 668 279 668 415 l 668 243 z "},"9":{"ha":729,"x_min":61,"x_max":668,"o":"m 547 637 q 540 673 547 656 q 520 702 532 690 q 491 722 507 715 q 456 729 474 729 l 273 729 q 238 722 255 729 q 209 702 222 715 q 189 673 197 690 q 182 637 182 656 q 189 602 182 618 q 209 574 197 586 q 238 554 222 562 q 273 547 255 547 l 456 547 q 491 554 474 547 q 520 574 507 562 q 540 602 532 586 q 547 637 547 618 m 668 243 q 651 149 668 192 q 597 71 634 106 q 425 0 526 0 l 121 0 l 121 243 l 425 243 q 473 252 451 243 q 512 278 496 262 q 538 316 528 294 q 547 364 547 338 l 547 522 q 539 485 547 503 q 518 454 532 467 q 488 433 505 441 q 450 425 470 425 l 304 425 q 211 444 254 425 q 132 497 168 462 q 61 668 61 568 l 61 729 q 131 901 61 832 q 304 972 203 972 l 425 972 q 518 954 475 972 q 597 900 561 936 q 668 729 668 828 l 668 243 z "}," ":{"ha":547,"x_min":0,"x_max":0,"o":""},"!":{"ha":292,"x_min":61,"x_max":231,"o":"m 61 0 l 61 170 l 231 170 l 231 0 l 61 0 m 182 292 l 110 292 l 61 972 l 231 972 l 182 292 z "},"\"":{"ha":558,"x_min":61,"x_max":498,"o":"m 182 693 l 110 693 l 61 1034 l 231 1034 l 182 693 m 450 693 l 376 693 l 328 1034 l 498 1034 l 450 693 z "},"#":{"ha":753,"x_min":61,"x_max":693,"o":"m 311 729 l 297 583 l 443 583 l 457 729 l 311 729 m 532 486 l 519 340 l 422 340 l 435 486 l 289 486 l 277 340 l 179 340 l 192 486 l 61 486 l 61 583 l 200 583 l 214 729 l 61 729 l 61 827 l 222 827 l 235 972 l 332 972 l 319 827 l 465 827 l 478 972 l 575 972 l 562 827 l 693 827 l 693 729 l 554 729 l 541 583 l 693 583 l 693 486 l 532 486 z "},"$":{"ha":729,"x_min":61,"x_max":668,"o":"m 668 364 q 597 193 668 264 q 518 139 561 157 q 425 121 475 121 l 425 0 l 304 0 l 304 121 l 61 121 l 61 364 l 425 364 q 449 369 437 364 q 468 383 460 374 q 481 402 477 391 q 486 425 486 413 q 468 468 486 450 q 425 486 450 486 l 304 486 q 132 558 202 486 q 61 729 61 629 q 132 900 61 829 q 304 972 203 972 l 304 1093 l 425 1093 l 425 972 l 668 972 l 668 729 l 304 729 q 261 711 279 729 q 243 668 243 693 q 248 645 243 656 q 261 626 252 634 q 280 612 269 617 q 304 607 292 607 l 425 607 q 597 536 524 607 q 668 364 668 465 z "},"%":{"ha":1300,"x_min":61,"x_max":1239,"o":"m 425 699 q 418 734 425 718 q 398 763 410 751 q 370 783 386 776 q 335 790 353 790 l 243 790 q 208 783 224 790 q 179 763 191 776 q 159 734 166 751 q 151 699 151 718 l 151 607 q 159 572 151 589 q 179 544 166 556 q 208 524 191 531 q 243 517 224 517 l 335 517 q 371 524 354 517 q 399 543 387 530 q 418 571 412 555 q 425 607 425 587 l 425 699 m 1149 364 q 1141 399 1149 382 q 1121 428 1134 416 q 1092 448 1109 441 q 1057 456 1076 456 l 966 456 q 931 448 948 456 q 902 428 915 441 q 882 399 890 416 q 875 364 875 382 l 875 273 q 882 238 875 255 q 902 209 890 222 q 931 189 915 197 q 966 182 948 182 l 1057 182 q 1094 189 1077 182 q 1122 208 1110 196 q 1142 237 1135 220 q 1149 273 1149 254 l 1149 364 m 517 517 q 503 446 517 478 q 463 386 490 414 q 405 348 437 360 q 335 335 372 335 l 243 335 q 114 387 168 335 q 61 517 61 441 l 61 790 q 114 918 61 865 q 243 972 168 972 l 335 972 q 404 959 372 972 q 463 918 437 945 q 517 790 517 866 l 517 517 m 589 0 l 589 972 l 711 972 l 711 0 l 589 0 m 1239 182 q 1186 53 1239 106 q 1057 0 1135 0 l 966 0 q 838 53 890 0 q 783 182 783 107 l 783 456 q 838 585 783 530 q 966 637 890 637 l 1057 637 q 1186 585 1133 637 q 1239 456 1239 530 l 1239 182 z "},"&":{"ha":729,"x_min":61,"x_max":668,"o":"m 473 425 l 335 425 q 299 418 316 425 q 270 398 283 410 q 250 370 258 386 q 243 335 243 353 q 250 299 243 316 q 270 270 258 283 q 299 250 283 258 q 335 243 316 243 l 473 243 l 473 425 m 304 0 q 132 72 202 0 q 61 243 61 143 q 72 323 61 285 q 105 394 83 362 q 157 450 126 426 q 228 486 188 473 q 157 523 188 499 q 105 578 126 547 q 72 649 83 610 q 61 729 61 687 q 132 900 61 829 q 304 972 203 972 l 668 972 l 668 729 l 335 729 q 299 722 316 729 q 270 702 283 715 q 250 673 258 690 q 243 637 243 656 q 250 602 243 618 q 270 574 258 586 q 299 554 283 562 q 335 547 316 547 l 668 547 l 668 425 l 596 425 l 596 243 l 668 243 l 668 0 l 304 0 z "},"'":{"ha":292,"x_min":61,"x_max":231,"o":"m 182 693 l 110 693 l 61 1034 l 231 1034 l 182 693 z "},"(":{"ha":425,"x_min":61,"x_max":304,"o":"m 304 -122 q 211 -104 254 -122 q 132 -50 168 -85 q 61 121 61 21 l 61 850 q 132 1022 61 951 q 304 1093 202 1093 l 304 850 q 257 840 279 850 q 218 814 235 831 q 192 776 201 798 q 182 729 182 754 l 182 243 q 192 196 182 218 q 218 157 201 174 q 257 131 235 140 q 304 121 279 121 l 304 -122 z "},")":{"ha":425,"x_min":121,"x_max":364,"o":"m 364 121 q 293 -50 364 21 q 215 -104 257 -85 q 121 -122 172 -122 l 121 121 q 169 131 146 121 q 208 157 191 140 q 233 196 224 174 q 243 243 243 218 l 243 729 q 233 776 243 754 q 208 814 224 798 q 169 840 191 831 q 121 850 146 850 l 121 1093 q 293 1022 222 1093 q 364 850 364 951 l 364 121 z "},"*":{"ha":590,"x_min":61,"x_max":529,"o":"m 481 566 l 345 646 l 345 486 l 248 486 l 248 646 l 110 566 l 61 650 l 199 729 l 61 808 l 110 893 l 248 812 l 248 972 l 345 972 l 345 812 l 481 893 l 529 808 l 393 729 l 529 650 l 481 566 z "},"+":{"ha":607,"x_min":61,"x_max":547,"o":"m 353 376 l 353 182 l 256 182 l 256 376 l 61 376 l 61 473 l 256 473 l 256 668 l 353 668 l 353 473 l 547 473 l 547 376 l 353 376 z "},",":{"ha":292,"x_min":61,"x_max":231,"o":"m 182 -171 l 110 -171 l 61 170 l 231 170 l 182 -171 z "},"-":{"ha":607,"x_min":61,"x_max":547,"o":"m 61 376 l 61 473 l 547 473 l 547 376 l 61 376 z "},"­":{"ha":607,"x_min":61,"x_max":547,"o":"m 61 376 l 61 473 l 547 473 l 547 376 l 61 376 z "},".":{"ha":292,"x_min":61,"x_max":231,"o":"m 61 0 l 61 170 l 231 170 l 231 0 l 61 0 z "},"/":{"ha":590,"x_min":31,"x_max":559,"o":"m 144 -106 l 31 -64 l 446 1078 l 559 1036 l 144 -106 z "},":":{"ha":292,"x_min":61,"x_max":231,"o":"m 61 0 l 61 170 l 231 170 l 231 0 l 61 0 m 61 486 l 61 656 l 231 656 l 231 486 l 61 486 z "},";":{"ha":292,"x_min":61,"x_max":231,"o":"m 182 -171 l 110 -171 l 61 170 l 231 170 l 182 -171 m 61 486 l 61 656 l 231 656 l 231 486 l 61 486 z "},";":{"ha":292,"x_min":61,"x_max":231,"o":"m 182 -171 l 110 -171 l 61 170 l 231 170 l 182 -171 m 61 486 l 61 656 l 231 656 l 231 486 l 61 486 z "},"<":{"ha":582,"x_min":61,"x_max":521,"o":"m 468 111 l 61 376 l 61 473 l 468 739 l 521 657 l 164 425 l 521 193 l 468 111 z "},"=":{"ha":607,"x_min":61,"x_max":547,"o":"m 61 267 l 61 364 l 547 364 l 547 267 l 61 267 m 61 486 l 61 583 l 547 583 l 547 486 l 61 486 z "},">":{"ha":582,"x_min":61,"x_max":521,"o":"m 114 111 l 61 193 l 418 425 l 61 657 l 114 739 l 521 473 l 521 376 l 114 111 z "},"?":{"ha":656,"x_min":61,"x_max":596,"o":"m 121 0 l 121 170 l 292 170 l 292 0 l 121 0 m 596 729 q 524 558 596 631 q 353 486 452 486 l 257 486 l 243 292 l 170 292 l 147 607 l 353 607 q 376 612 365 607 q 395 626 387 617 q 408 645 403 634 q 412 668 412 656 q 408 691 412 680 q 395 711 403 703 q 376 724 387 720 q 353 729 365 729 l 61 729 l 61 972 l 353 972 q 524 900 451 972 q 578 822 559 864 q 596 729 596 780 z "},"@":{"ha":1093,"x_min":61,"x_max":1034,"o":"m 688 374 q 665 433 688 410 q 606 456 642 456 l 514 456 q 478 448 495 456 q 447 428 460 441 q 425 399 433 416 q 414 364 416 382 q 409 295 410 320 q 407 267 407 271 q 413 233 407 248 q 430 206 419 218 q 457 188 441 195 q 490 182 472 182 l 581 182 q 616 189 600 182 q 647 209 633 197 q 670 238 661 222 q 681 273 679 255 q 686 343 684 319 q 688 374 688 368 m 1034 243 q 962 71 1034 142 q 790 0 892 0 l 656 0 l 661 61 q 529 -1 653 -1 l 500 -1 q 486 0 492 0 q 473 0 479 0 q 354 47 404 0 q 318 102 330 73 q 306 167 306 131 q 306 172 306 168 q 307 182 306 176 l 332 456 q 396 585 339 530 q 529 637 455 637 l 621 637 q 741 590 693 637 q 789 472 789 544 q 789 466 789 471 q 787 456 789 462 l 754 85 l 827 85 q 874 94 852 85 q 913 120 897 104 q 938 159 929 136 q 947 207 947 181 l 947 765 q 938 812 947 790 q 912 851 928 835 q 874 878 896 868 q 827 888 852 888 l 267 888 q 219 878 241 888 q 181 851 197 868 q 155 812 165 835 q 146 765 146 790 l 146 -36 q 155 -83 146 -61 q 181 -122 165 -106 q 219 -149 197 -139 q 267 -158 241 -158 l 911 -158 l 911 -243 l 304 -243 q 131 -171 202 -243 q 61 0 61 -101 l 61 729 q 131 900 61 830 q 211 954 168 936 q 304 972 254 972 l 790 972 q 961 900 890 972 q 1015 822 997 864 q 1034 729 1034 780 l 1034 243 z "},"A":{"ha":729,"x_min":61,"x_max":668,"o":"m 547 607 q 538 655 547 633 q 512 694 528 677 q 473 720 496 710 q 425 729 451 729 l 304 729 q 257 720 279 729 q 218 693 235 710 q 192 654 201 677 q 182 607 182 632 l 182 364 l 547 364 l 547 607 m 547 0 l 547 243 l 182 243 l 182 0 l 61 0 l 61 729 q 132 900 61 829 q 304 972 203 972 l 425 972 q 597 901 526 972 q 651 823 634 866 q 668 729 668 781 l 668 0 l 547 0 z "},"B":{"ha":729,"x_min":61,"x_max":668,"o":"m 486 335 q 479 370 486 353 q 459 398 471 386 q 430 418 446 410 q 395 425 413 425 l 182 425 l 182 243 l 395 243 q 430 250 413 243 q 459 270 446 258 q 479 299 471 283 q 486 335 486 316 m 486 637 q 479 673 486 656 q 459 702 471 690 q 430 722 446 715 q 395 729 413 729 l 182 729 l 182 547 l 395 547 q 430 554 413 547 q 459 574 446 562 q 479 602 471 586 q 486 637 486 618 m 668 243 q 597 72 668 144 q 425 0 525 0 l 61 0 l 61 972 l 425 972 q 518 954 475 972 q 597 900 561 936 q 668 729 668 828 l 668 717 q 656 642 668 678 q 621 575 645 606 q 568 520 597 543 q 500 486 538 498 q 571 450 540 473 q 624 394 603 426 q 657 323 646 362 q 668 243 668 285 z "},"C":{"ha":729,"x_min":61,"x_max":668,"o":"m 304 0 q 132 72 202 0 q 61 243 61 143 l 61 729 q 132 900 61 829 q 304 972 203 972 l 668 972 l 668 729 l 304 729 q 257 720 279 729 q 218 693 235 710 q 192 654 201 677 q 182 607 182 632 l 182 364 q 192 317 182 339 q 218 278 201 295 q 257 252 235 262 q 304 243 279 243 l 668 243 l 668 0 l 304 0 z "},"D":{"ha":729,"x_min":61,"x_max":668,"o":"m 547 607 q 537 654 547 632 q 511 693 528 677 q 472 720 494 710 q 425 729 450 729 l 182 729 l 182 243 l 425 243 q 473 252 451 243 q 512 278 496 262 q 538 316 528 294 q 547 364 547 338 l 547 607 m 668 243 q 651 149 668 192 q 597 71 634 106 q 425 0 526 0 l 61 0 l 61 972 l 425 972 q 518 954 475 972 q 597 900 561 936 q 668 729 668 828 l 668 243 z "},"E":{"ha":607,"x_min":61,"x_max":547,"o":"m 304 0 q 131 71 203 0 q 78 149 95 106 q 61 243 61 192 l 61 972 l 547 972 l 547 729 l 182 729 l 182 547 l 425 547 l 425 425 l 182 425 l 182 364 q 191 316 182 338 q 217 278 201 294 q 256 252 233 262 q 304 243 278 243 l 547 243 l 547 0 l 304 0 z "},"F":{"ha":578,"x_min":61,"x_max":547,"o":"m 304 729 q 256 720 278 729 q 217 694 233 710 q 191 655 201 677 q 182 607 182 633 l 182 547 l 425 547 l 425 425 l 182 425 l 182 0 l 61 0 l 61 729 q 131 901 61 832 q 304 972 203 972 l 547 972 l 547 729 l 304 729 z "},"G":{"ha":729,"x_min":61,"x_max":668,"o":"m 304 729 q 257 720 279 729 q 218 693 235 710 q 192 654 201 677 q 182 607 182 632 l 182 364 q 192 317 182 339 q 218 278 201 295 q 257 252 235 262 q 304 243 279 243 l 534 243 l 534 425 l 364 425 l 364 547 l 656 547 l 656 0 l 304 0 q 132 72 202 0 q 61 243 61 143 l 61 729 q 132 900 61 829 q 304 972 203 972 l 668 972 l 668 729 l 304 729 z "},"H":{"ha":729,"x_min":61,"x_max":668,"o":"m 547 0 l 547 364 l 182 364 l 182 0 l 61 0 l 61 972 l 182 972 l 182 607 l 547 607 l 547 972 l 668 972 l 668 0 l 547 0 z "},"I":{"ha":364,"x_min":61,"x_max":304,"o":"m 61 0 l 61 243 l 121 243 l 121 729 l 61 729 l 61 972 l 304 972 l 304 729 l 243 729 l 243 243 l 304 243 l 304 0 l 61 0 z "},"J":{"ha":486,"x_min":61,"x_max":425,"o":"m 425 243 q 408 149 425 192 q 354 71 391 106 q 182 0 283 0 l 61 0 l 61 243 l 182 243 q 231 252 208 243 q 269 278 253 262 q 295 316 286 294 q 304 364 304 338 l 304 729 l 61 729 l 61 972 l 425 972 l 425 243 z "},"K":{"ha":729,"x_min":61,"x_max":668,"o":"m 547 0 l 547 243 q 538 291 547 269 q 512 330 528 313 q 473 355 496 346 q 425 364 451 364 l 182 364 l 182 0 l 61 0 l 61 972 l 182 972 l 182 607 l 425 607 q 473 616 451 607 q 512 642 496 626 q 538 681 528 659 q 547 729 547 703 l 547 972 l 668 972 l 668 704 q 659 636 668 669 q 632 575 649 604 q 589 524 614 547 q 533 486 564 501 q 589 448 564 471 q 632 397 614 425 q 659 335 649 368 q 668 267 668 302 l 668 0 l 547 0 z "},"L":{"ha":607,"x_min":61,"x_max":547,"o":"m 304 0 q 131 71 203 0 q 78 149 95 106 q 61 243 61 192 l 61 972 l 182 972 l 182 364 q 191 316 182 338 q 217 278 201 294 q 256 252 233 262 q 304 243 278 243 l 547 243 l 547 0 l 304 0 z "},"M":{"ha":1215,"x_min":61,"x_max":1154,"o":"m 1034 0 l 1034 607 q 1024 654 1034 632 q 997 693 1014 677 q 958 720 981 710 q 911 729 936 729 l 790 729 q 742 720 764 729 q 703 694 720 710 q 677 655 687 677 q 668 607 668 633 l 668 0 l 547 0 l 547 607 q 538 655 547 633 q 512 694 528 677 q 473 720 496 710 q 425 729 451 729 l 304 729 q 257 720 279 729 q 218 693 235 710 q 192 654 201 677 q 182 607 182 632 l 182 0 l 61 0 l 61 729 q 132 900 61 829 q 304 972 203 972 l 376 972 q 452 961 416 972 q 519 928 489 949 q 572 876 550 906 q 607 807 595 845 q 642 876 619 845 q 696 928 665 906 q 763 961 726 949 q 839 972 799 972 l 911 972 q 1004 954 962 972 q 1083 900 1046 936 q 1154 729 1154 829 l 1154 0 l 1034 0 z "},"N":{"ha":729,"x_min":61,"x_max":668,"o":"m 547 0 l 547 607 q 538 655 547 633 q 512 694 528 677 q 473 720 496 710 q 425 729 451 729 l 304 729 q 257 720 279 729 q 218 693 235 710 q 192 654 201 677 q 182 607 182 632 l 182 0 l 61 0 l 61 729 q 131 900 61 830 q 211 954 168 936 q 304 972 254 972 l 425 972 q 597 901 526 972 q 651 823 634 866 q 668 729 668 781 l 668 0 l 547 0 z "},"O":{"ha":729,"x_min":61,"x_max":668,"o":"m 547 607 q 537 654 547 632 q 511 693 528 677 q 472 720 494 710 q 425 729 450 729 l 304 729 q 257 720 279 729 q 218 693 235 710 q 192 654 201 677 q 182 607 182 632 l 182 364 q 192 317 182 339 q 218 278 201 295 q 257 252 235 262 q 304 243 279 243 l 425 243 q 473 252 451 243 q 512 278 496 262 q 538 316 528 294 q 547 364 547 338 l 547 607 m 668 243 q 651 149 668 192 q 597 71 634 106 q 425 0 526 0 l 304 0 q 131 71 203 0 q 78 150 95 106 q 61 243 61 193 l 61 729 q 131 900 61 830 q 211 954 168 936 q 304 972 254 972 l 425 972 q 518 954 475 972 q 597 900 561 936 q 668 729 668 828 l 668 243 z "},"P":{"ha":729,"x_min":61,"x_max":668,"o":"m 486 637 q 479 673 486 656 q 459 702 471 690 q 430 722 446 715 q 395 729 413 729 l 182 729 l 182 547 l 395 547 q 430 554 413 547 q 459 574 446 562 q 479 602 471 586 q 486 637 486 618 m 668 668 q 597 497 668 569 q 518 444 561 462 q 425 425 475 425 l 182 425 l 182 0 l 61 0 l 61 972 l 425 972 q 518 954 475 972 q 597 900 561 936 q 668 729 668 828 l 668 668 z "},"Q":{"ha":729,"x_min":61,"x_max":668,"o":"m 547 607 q 537 654 547 632 q 511 693 528 677 q 472 720 494 710 q 425 729 450 729 l 304 729 q 257 720 279 729 q 218 693 235 710 q 192 654 201 677 q 182 607 182 632 l 182 364 q 192 317 182 339 q 218 278 201 295 q 257 252 235 262 q 304 243 279 243 l 425 243 q 473 252 451 243 q 512 278 496 262 q 538 316 528 294 q 547 364 547 338 l 547 607 m 547 -366 q 374 -294 447 -366 q 321 -216 338 -259 q 304 -122 304 -174 l 304 0 q 132 71 203 0 q 61 243 61 142 l 61 729 q 132 900 61 829 q 304 972 203 972 l 425 972 q 518 954 475 972 q 597 900 561 936 q 668 729 668 828 l 668 243 q 651 149 668 192 q 597 71 634 106 q 425 0 526 0 q 435 -48 425 -26 q 460 -87 444 -71 q 499 -113 477 -103 q 547 -122 522 -122 l 668 -122 l 668 -366 l 547 -366 z "},"R":{"ha":729,"x_min":61,"x_max":668,"o":"m 486 637 q 479 673 486 656 q 459 702 471 690 q 430 722 446 715 q 395 729 413 729 l 182 729 l 182 547 l 395 547 q 430 554 413 547 q 459 574 446 562 q 479 602 471 586 q 486 637 486 618 m 547 0 l 547 256 q 537 319 547 290 q 507 374 527 349 q 395 425 464 425 l 182 425 l 182 0 l 61 0 l 61 972 l 425 972 q 518 954 475 972 q 597 900 561 936 q 668 729 668 828 q 657 649 668 687 q 624 578 646 610 q 571 523 603 547 q 500 486 540 499 q 571 451 540 473 q 624 400 603 429 q 657 334 646 370 q 668 256 668 297 l 668 0 l 547 0 z "},"S":{"ha":729,"x_min":61,"x_max":668,"o":"m 668 243 q 597 72 668 144 q 425 0 525 0 l 61 0 l 61 243 l 395 243 q 430 250 413 243 q 459 270 446 258 q 479 299 471 283 q 486 335 486 316 q 479 370 486 353 q 459 398 471 386 q 430 418 446 410 q 395 425 413 425 l 304 425 q 211 444 254 425 q 132 497 168 462 q 61 668 61 568 l 61 729 q 132 900 61 829 q 304 972 203 972 l 668 972 l 668 729 l 335 729 q 299 722 316 729 q 270 702 283 715 q 250 673 258 690 q 243 637 243 656 q 250 602 243 618 q 270 574 258 586 q 299 554 283 562 q 335 547 316 547 l 425 547 q 518 529 475 547 q 597 475 561 511 q 668 304 668 404 l 668 243 z "},"T":{"ha":668,"x_min":31,"x_max":637,"o":"m 395 729 l 395 0 l 273 0 l 273 729 l 31 729 l 31 972 l 637 972 l 637 729 l 395 729 z "},"U":{"ha":729,"x_min":61,"x_max":668,"o":"m 668 243 q 651 149 668 192 q 597 71 634 106 q 425 0 526 0 l 304 0 q 131 71 203 0 q 78 150 95 106 q 61 243 61 193 l 61 972 l 182 972 l 182 364 q 192 317 182 339 q 218 278 201 295 q 257 252 235 262 q 304 243 279 243 l 425 243 q 473 252 451 243 q 512 278 496 262 q 538 316 528 294 q 547 364 547 338 l 547 972 l 668 972 l 668 243 z "},"V":{"ha":729,"x_min":61,"x_max":668,"o":"m 668 243 q 651 149 668 192 q 597 71 634 106 q 425 0 526 0 l 61 0 l 61 972 l 182 972 l 182 243 l 425 243 q 473 252 451 243 q 512 278 496 262 q 538 316 528 294 q 547 364 547 338 l 547 972 l 668 972 l 668 243 z "},"W":{"ha":1215,"x_min":61,"x_max":1154,"o":"m 1154 243 q 1083 72 1154 143 q 911 0 1011 0 l 839 0 q 763 12 799 0 q 696 44 726 23 q 642 97 665 66 q 607 165 619 127 q 572 97 595 127 q 519 44 550 66 q 452 12 489 23 q 376 0 416 0 l 304 0 q 132 72 202 0 q 61 243 61 143 l 61 972 l 182 972 l 182 364 q 192 317 182 339 q 218 278 201 295 q 257 252 235 262 q 304 243 279 243 l 425 243 q 473 252 451 243 q 512 278 496 262 q 538 316 528 294 q 547 364 547 338 l 547 972 l 668 972 l 668 364 q 677 316 668 338 q 703 278 687 294 q 742 252 720 262 q 790 243 764 243 l 911 243 q 958 252 936 243 q 997 278 981 262 q 1024 317 1014 295 q 1034 364 1034 339 l 1034 972 l 1154 972 l 1154 243 z "},"X":{"ha":729,"x_min":61,"x_max":668,"o":"m 596 0 q 453 46 517 0 q 399 100 421 70 q 364 168 376 130 q 330 100 353 130 q 277 46 308 70 q 134 0 211 0 l 61 0 l 61 243 l 182 243 q 229 252 207 243 q 268 278 252 262 q 295 317 285 295 q 304 364 304 339 l 304 607 q 295 654 304 632 q 268 693 285 677 q 229 720 252 710 q 182 729 207 729 l 61 729 l 61 972 l 134 972 q 277 925 212 972 q 330 872 308 902 q 364 804 353 842 q 399 872 376 842 q 453 925 421 902 q 596 972 517 972 l 668 972 l 668 729 l 547 729 q 500 720 522 729 q 461 693 478 710 q 435 654 445 677 q 425 607 425 632 l 425 364 q 435 317 425 339 q 461 278 445 295 q 500 252 478 262 q 547 243 522 243 l 668 243 l 668 0 l 596 0 z "},"Y":{"ha":729,"x_min":61,"x_max":668,"o":"m 668 534 q 651 441 668 484 q 597 363 634 398 q 425 292 526 292 l 425 0 l 304 0 l 304 292 q 132 363 202 292 q 79 441 96 398 q 61 534 61 484 l 61 972 l 182 972 l 182 656 q 192 609 182 631 q 218 570 201 587 q 257 544 235 553 q 304 534 279 534 l 425 534 q 473 544 451 534 q 512 570 496 553 q 538 608 528 586 q 547 656 547 630 l 547 972 l 668 972 l 668 534 z "},"Z":{"ha":729,"x_min":61,"x_max":668,"o":"m 61 0 l 61 243 l 486 729 l 61 729 l 61 972 l 668 972 l 668 729 l 243 243 l 668 243 l 668 0 l 61 0 z "},"[":{"ha":425,"x_min":61,"x_max":304,"o":"m 61 -122 l 61 1093 l 304 1093 l 304 850 l 182 850 l 182 121 l 304 121 l 304 -122 l 61 -122 z "},"\\":{"ha":590,"x_min":31,"x_max":559,"o":"m 446 -106 l 31 1036 l 144 1078 l 559 -64 l 446 -106 z "},"]":{"ha":425,"x_min":121,"x_max":364,"o":"m 121 -122 l 121 121 l 243 121 l 243 850 l 121 850 l 121 1093 l 364 1093 l 364 -122 l 121 -122 z "},"^":{"ha":615,"x_min":61,"x_max":554,"o":"m 465 489 l 307 842 l 150 489 l 61 529 l 258 972 l 355 972 l 554 529 l 465 489 z "},"_":{"ha":547,"x_min":0,"x_max":547,"o":"m 0 0 l 0 121 l 547 121 l 547 0 l 0 0 z "},"`":{"ha":292,"x_min":61,"x_max":231,"o":"m 158 802 l 61 972 l 158 972 l 231 802 l 158 802 z "},"a":{"ha":729,"x_min":61,"x_max":668,"o":"m 547 486 q 538 534 547 512 q 512 572 528 556 q 473 598 496 589 q 425 607 451 607 l 304 607 q 257 597 279 607 q 218 572 235 588 q 192 533 201 555 q 182 486 182 511 l 182 364 q 192 317 182 339 q 218 278 201 295 q 257 252 235 262 q 304 243 279 243 l 425 243 q 472 252 450 243 q 511 278 494 262 q 537 317 528 295 q 547 364 547 339 l 547 486 m 547 0 l 547 82 q 503 20 545 43 q 466 4 486 9 q 425 0 446 0 l 304 0 q 132 72 202 0 q 61 243 61 143 l 61 607 q 132 779 61 708 q 304 850 202 850 l 425 850 q 519 833 476 850 q 597 781 562 817 q 651 701 634 745 q 668 607 668 658 l 668 0 l 547 0 z "},"b":{"ha":729,"x_min":61,"x_max":668,"o":"m 547 486 q 537 533 547 511 q 511 572 528 555 q 472 597 494 588 q 425 607 450 607 l 304 607 q 257 597 279 607 q 218 572 235 588 q 192 533 201 555 q 182 486 182 511 l 182 364 q 191 316 182 338 q 217 278 201 294 q 256 252 233 262 q 304 243 278 243 l 425 243 q 472 252 450 243 q 511 278 494 262 q 537 317 528 295 q 547 364 547 339 l 547 486 m 668 243 q 597 72 668 144 q 425 0 525 0 l 304 0 q 131 71 203 0 q 78 149 95 106 q 61 243 61 192 l 61 1034 l 182 1034 l 182 770 q 227 831 184 807 q 263 845 243 841 q 304 850 283 850 l 425 850 q 597 779 525 850 q 668 607 668 707 l 668 243 z "},"c":{"ha":729,"x_min":61,"x_max":668,"o":"m 304 0 q 132 72 202 0 q 61 243 61 143 l 61 607 q 132 779 61 708 q 304 850 202 850 l 668 850 l 668 607 l 304 607 q 257 597 279 607 q 218 572 235 588 q 192 533 201 555 q 182 486 182 511 l 182 364 q 192 317 182 339 q 218 278 201 295 q 257 252 235 262 q 304 243 279 243 l 668 243 l 668 0 l 304 0 z "},"d":{"ha":729,"x_min":61,"x_max":668,"o":"m 547 486 q 537 533 547 511 q 511 572 528 555 q 472 597 494 588 q 425 607 450 607 l 304 607 q 257 597 279 607 q 218 572 235 588 q 192 533 201 555 q 182 486 182 511 l 182 364 q 192 317 182 339 q 218 278 201 295 q 257 252 235 262 q 304 243 279 243 l 425 243 q 473 252 451 243 q 512 278 496 262 q 538 316 528 294 q 547 364 547 338 l 547 486 m 668 243 q 651 149 668 192 q 597 71 634 106 q 425 0 526 0 l 304 0 q 132 72 202 0 q 61 243 61 143 l 61 607 q 132 779 61 708 q 304 850 202 850 l 425 850 q 466 845 446 850 q 503 831 486 841 q 547 770 545 807 l 547 1034 l 668 1034 l 668 243 z "},"e":{"ha":729,"x_min":61,"x_max":668,"o":"m 304 0 q 132 72 202 0 q 61 243 61 143 l 61 607 q 132 779 61 708 q 304 850 202 850 l 668 850 l 668 607 l 304 607 q 257 597 279 607 q 218 572 235 588 q 192 533 201 555 q 182 486 182 511 l 547 486 l 547 364 l 182 364 q 192 317 182 339 q 218 278 201 295 q 257 252 235 262 q 304 243 279 243 l 668 243 l 668 0 l 304 0 z "},"f":{"ha":578,"x_min":61,"x_max":547,"o":"m 304 790 q 256 781 278 790 q 217 755 233 771 q 191 716 201 739 q 182 668 182 694 l 182 547 l 425 547 l 425 425 l 182 425 l 182 0 l 61 0 l 61 790 q 131 962 61 893 q 304 1034 203 1034 l 547 1034 l 547 790 l 304 790 z "},"g":{"ha":729,"x_min":61,"x_max":668,"o":"m 547 486 q 537 533 547 511 q 511 572 528 555 q 472 597 494 588 q 425 607 450 607 l 304 607 q 257 597 279 607 q 218 572 235 588 q 192 533 201 555 q 182 486 182 511 l 182 364 q 192 317 182 339 q 218 278 201 295 q 257 252 235 262 q 304 243 279 243 l 425 243 q 473 252 451 243 q 512 278 496 262 q 538 316 528 294 q 547 364 547 338 l 547 486 m 668 -122 q 651 -216 668 -174 q 597 -294 634 -259 q 425 -366 526 -366 l 304 -366 l 304 -122 l 425 -122 q 473 -113 451 -122 q 512 -87 496 -103 q 538 -48 528 -71 q 547 0 547 -26 l 547 82 q 503 20 545 43 q 466 4 486 9 q 425 0 446 0 l 304 0 q 132 72 202 0 q 61 243 61 143 l 61 607 q 132 779 61 708 q 304 850 202 850 l 425 850 q 519 833 476 850 q 597 781 562 817 q 651 701 634 745 q 668 607 668 658 l 668 -122 z "},"h":{"ha":729,"x_min":61,"x_max":668,"o":"m 547 0 l 547 486 q 537 533 547 511 q 511 572 528 555 q 472 597 494 588 q 425 607 450 607 l 304 607 q 257 597 279 607 q 218 572 235 588 q 192 533 201 555 q 182 486 182 511 l 182 0 l 61 0 l 61 1034 l 182 1034 l 182 770 q 227 831 182 807 q 263 845 243 841 q 304 850 283 850 l 425 850 q 597 779 525 850 q 668 607 668 707 l 668 0 l 547 0 z "},"i":{"ha":243,"x_min":61,"x_max":182,"o":"m 61 0 l 61 850 l 182 850 l 182 0 l 61 0 z "},"j":{"ha":486,"x_min":61,"x_max":425,"o":"m 425 -122 q 408 -216 425 -174 q 354 -294 391 -259 q 182 -366 283 -366 l 61 -366 l 61 -122 l 182 -122 q 231 -113 208 -122 q 269 -87 253 -103 q 295 -48 286 -71 q 304 0 304 -26 l 304 607 l 61 607 l 61 850 l 425 850 l 425 -122 z "},"k":{"ha":729,"x_min":61,"x_max":668,"o":"m 547 0 l 547 182 q 538 231 547 208 q 512 269 528 253 q 473 295 496 286 q 425 304 451 304 l 182 304 l 182 0 l 61 0 l 61 1034 l 182 1034 l 182 547 l 425 547 q 473 556 451 547 q 512 582 496 566 q 538 620 528 598 q 547 668 547 642 l 547 850 l 668 850 l 668 644 q 659 576 668 609 q 632 514 649 543 q 589 463 614 486 q 533 425 564 440 q 589 387 564 410 q 632 336 614 364 q 659 274 649 307 q 668 207 668 241 l 668 0 l 547 0 z "},"l":{"ha":335,"x_min":61,"x_max":304,"o":"m 304 0 q 131 71 203 0 q 78 149 95 106 q 61 243 61 192 l 61 1034 l 182 1034 l 182 364 q 191 316 182 338 q 217 278 201 294 q 256 252 233 262 q 304 243 278 243 l 304 0 z "},"m":{"ha":1215,"x_min":61,"x_max":1154,"o":"m 1034 0 l 1034 486 q 1024 533 1034 511 q 997 572 1014 555 q 958 597 981 588 q 911 607 936 607 l 790 607 q 742 598 764 607 q 703 572 720 589 q 677 534 687 556 q 668 486 668 512 l 668 0 l 547 0 l 547 486 q 538 534 547 512 q 512 572 528 556 q 473 598 496 589 q 425 607 451 607 l 304 607 q 257 597 279 607 q 218 572 235 588 q 192 533 201 555 q 182 486 182 511 l 182 0 l 61 0 l 61 607 q 132 779 61 708 q 304 850 202 850 l 376 850 q 452 838 416 850 q 519 805 489 827 q 572 753 550 784 q 607 685 595 723 q 642 753 619 723 q 696 805 665 784 q 763 838 726 827 q 839 850 799 850 l 911 850 q 1083 779 1012 850 q 1154 607 1154 708 l 1154 0 l 1034 0 z "},"n":{"ha":729,"x_min":61,"x_max":668,"o":"m 547 0 l 547 486 q 538 534 547 512 q 512 572 528 556 q 473 598 496 589 q 425 607 451 607 l 304 607 q 257 597 279 607 q 218 572 235 588 q 192 533 201 555 q 182 486 182 511 l 182 0 l 61 0 l 61 607 q 131 779 61 709 q 304 850 202 850 l 425 850 q 519 833 476 850 q 597 781 562 817 q 651 701 634 745 q 668 607 668 658 l 668 0 l 547 0 z "},"o":{"ha":729,"x_min":61,"x_max":668,"o":"m 547 486 q 537 533 547 511 q 511 572 528 555 q 472 597 494 588 q 425 607 450 607 l 304 607 q 257 597 279 607 q 218 572 235 588 q 192 533 201 555 q 182 486 182 511 l 182 364 q 192 317 182 339 q 218 278 201 295 q 257 252 235 262 q 304 243 279 243 l 425 243 q 473 252 451 243 q 512 278 496 262 q 538 316 528 294 q 547 364 547 338 l 547 486 m 668 243 q 651 149 668 192 q 597 71 634 106 q 425 0 526 0 l 304 0 q 131 71 203 0 q 78 150 95 106 q 61 243 61 193 l 61 607 q 131 779 61 709 q 304 850 202 850 l 425 850 q 597 779 525 850 q 668 607 668 707 l 668 243 z "},"p":{"ha":729,"x_min":61,"x_max":668,"o":"m 547 486 q 537 533 547 511 q 511 572 528 555 q 472 597 494 588 q 425 607 450 607 l 304 607 q 256 598 278 607 q 217 572 233 589 q 191 534 201 556 q 182 486 182 512 l 182 364 q 192 317 182 339 q 218 278 201 295 q 257 252 235 262 q 304 243 279 243 l 425 243 q 472 252 450 243 q 511 278 494 262 q 537 317 528 295 q 547 364 547 339 l 547 486 m 668 243 q 597 72 668 144 q 425 0 525 0 l 304 0 q 263 4 283 0 q 227 20 243 9 q 182 82 184 43 l 182 -243 l 61 -243 l 61 607 q 78 701 61 658 q 131 781 95 745 q 210 833 168 817 q 304 850 253 850 l 425 850 q 597 779 525 850 q 668 607 668 707 l 668 243 z "},"q":{"ha":729,"x_min":61,"x_max":668,"o":"m 547 486 q 538 534 547 512 q 512 572 528 556 q 473 598 496 589 q 425 607 451 607 l 304 607 q 257 597 279 607 q 218 572 235 588 q 192 533 201 555 q 182 486 182 511 l 182 364 q 192 317 182 339 q 218 278 201 295 q 257 252 235 262 q 304 243 279 243 l 425 243 q 472 252 450 243 q 511 278 494 262 q 537 317 528 295 q 547 364 547 339 l 547 486 m 547 -243 l 547 82 q 503 20 545 43 q 466 4 486 9 q 425 0 446 0 l 304 0 q 132 72 202 0 q 61 243 61 143 l 61 607 q 132 779 61 708 q 304 850 202 850 l 425 850 q 519 833 476 850 q 597 781 562 817 q 651 701 634 745 q 668 607 668 658 l 668 -243 l 547 -243 z "},"r":{"ha":578,"x_min":61,"x_max":547,"o":"m 304 607 q 257 597 279 607 q 218 572 235 588 q 192 533 201 555 q 182 486 182 511 l 182 0 l 61 0 l 61 850 l 182 850 l 182 770 q 227 831 184 807 q 263 845 243 841 q 304 850 283 850 l 547 850 l 547 607 l 304 607 z "},"s":{"ha":729,"x_min":61,"x_max":668,"o":"m 668 243 q 597 72 668 144 q 425 0 525 0 l 61 0 l 61 243 l 425 243 q 469 260 451 243 q 486 304 486 278 q 481 328 486 317 q 468 347 477 338 q 449 359 460 355 q 425 364 437 364 l 304 364 q 132 436 203 364 q 61 607 61 507 q 132 779 61 708 q 304 850 202 850 l 668 850 l 668 607 l 304 607 q 260 590 278 607 q 243 547 243 572 q 261 504 243 522 q 304 486 279 486 l 425 486 q 518 468 475 486 q 597 414 561 450 q 668 243 668 343 z "},"t":{"ha":578,"x_min":61,"x_max":547,"o":"m 304 0 q 131 71 203 0 q 78 149 95 106 q 61 243 61 192 l 61 972 l 182 972 l 182 850 l 425 850 l 425 729 l 182 729 l 182 364 q 191 316 182 338 q 217 278 201 294 q 256 252 233 262 q 304 243 278 243 l 547 243 l 547 0 l 304 0 z "},"u":{"ha":729,"x_min":61,"x_max":668,"o":"m 668 243 q 651 149 668 192 q 597 71 634 106 q 425 0 526 0 l 304 0 q 131 71 203 0 q 78 150 95 106 q 61 243 61 193 l 61 850 l 182 850 l 182 364 q 192 317 182 339 q 218 278 201 295 q 257 252 235 262 q 304 243 279 243 l 425 243 q 473 252 451 243 q 512 278 496 262 q 538 316 528 294 q 547 364 547 338 l 547 850 l 668 850 l 668 243 z "},"v":{"ha":729,"x_min":61,"x_max":668,"o":"m 668 243 q 651 149 668 192 q 597 71 634 106 q 425 0 526 0 l 61 0 l 61 850 l 182 850 l 182 243 l 425 243 q 473 252 451 243 q 512 278 496 262 q 538 316 528 294 q 547 364 547 338 l 547 850 l 668 850 l 668 243 z "},"w":{"ha":1215,"x_min":61,"x_max":1154,"o":"m 1154 243 q 1083 72 1154 143 q 911 0 1011 0 l 839 0 q 763 12 799 0 q 696 44 726 23 q 642 97 665 66 q 607 165 619 127 q 572 97 595 127 q 519 44 550 66 q 452 12 489 23 q 376 0 416 0 l 304 0 q 132 72 202 0 q 61 243 61 143 l 61 850 l 182 850 l 182 364 q 192 317 182 339 q 218 278 201 295 q 257 252 235 262 q 304 243 279 243 l 425 243 q 473 252 451 243 q 512 278 496 262 q 538 316 528 294 q 547 364 547 338 l 547 850 l 668 850 l 668 364 q 677 316 668 338 q 703 278 687 294 q 742 252 720 262 q 790 243 764 243 l 911 243 q 958 252 936 243 q 997 278 981 262 q 1024 317 1014 295 q 1034 364 1034 339 l 1034 850 l 1154 850 l 1154 243 z "},"x":{"ha":729,"x_min":61,"x_max":668,"o":"m 596 0 q 453 46 517 0 q 399 100 421 70 q 364 168 376 130 q 330 100 353 130 q 277 46 308 70 q 134 0 211 0 l 61 0 l 61 243 l 182 243 q 229 252 207 243 q 268 278 252 262 q 295 317 285 295 q 304 364 304 339 l 304 486 q 295 533 304 511 q 268 572 285 555 q 229 597 252 588 q 182 607 207 607 l 61 607 l 61 850 l 134 850 q 277 803 213 850 q 330 750 308 780 q 364 684 353 721 q 399 750 376 721 q 453 803 421 780 q 521 838 486 827 q 596 850 556 850 l 668 850 l 668 607 l 547 607 q 500 597 522 607 q 461 572 478 588 q 435 533 445 555 q 425 486 425 511 l 425 364 q 435 317 425 339 q 461 278 445 295 q 500 252 478 262 q 547 243 522 243 l 668 243 l 668 0 l 596 0 z "},"y":{"ha":729,"x_min":61,"x_max":668,"o":"m 668 -122 q 651 -216 668 -174 q 597 -294 634 -259 q 425 -366 526 -366 l 304 -366 l 304 -122 l 425 -122 q 473 -113 451 -122 q 512 -87 496 -103 q 538 -48 528 -71 q 547 0 547 -26 l 547 82 q 503 20 545 43 q 466 4 486 9 q 425 0 446 0 l 304 0 q 132 72 202 0 q 61 243 61 143 l 61 850 l 182 850 l 182 364 q 192 317 182 339 q 218 278 201 295 q 257 252 235 262 q 304 243 279 243 l 425 243 q 473 252 451 243 q 512 278 496 262 q 538 316 528 294 q 547 364 547 338 l 547 850 l 668 850 l 668 -122 z "},"z":{"ha":729,"x_min":61,"x_max":668,"o":"m 61 0 l 61 243 l 450 607 l 61 607 l 61 850 l 668 850 l 668 607 l 279 243 l 668 243 l 668 0 l 61 0 z "},"{":{"ha":547,"x_min":61,"x_max":425,"o":"m 425 -122 q 332 -104 374 -122 q 254 -50 290 -85 q 200 28 218 -14 q 182 121 182 71 l 182 425 l 61 425 l 61 547 l 182 547 l 182 850 q 254 1022 182 951 q 425 1093 324 1093 l 425 850 q 378 840 400 850 q 340 814 356 831 q 314 776 323 798 q 304 729 304 754 l 304 243 q 314 196 304 218 q 340 157 323 174 q 378 131 356 140 q 425 121 400 121 l 425 -122 z "},"|":{"ha":243,"x_min":61,"x_max":182,"o":"m 61 -122 l 61 1093 l 182 1093 l 182 -122 l 61 -122 z "},"}":{"ha":547,"x_min":121,"x_max":486,"o":"m 364 425 l 364 121 q 293 -50 364 21 q 215 -104 257 -85 q 121 -122 172 -122 l 121 121 q 169 131 146 121 q 208 157 191 140 q 233 196 224 174 q 243 243 243 218 l 243 729 q 233 776 243 754 q 208 814 224 798 q 169 840 191 831 q 121 850 146 850 l 121 1093 q 293 1022 222 1093 q 364 850 364 951 l 364 547 l 486 547 l 486 425 l 364 425 z "},"~":{"ha":632,"x_min":61,"x_max":571,"o":"m 571 425 q 401 376 492 376 q 315 401 370 376 q 267 419 288 413 q 231 425 246 425 q 142 413 184 425 q 61 376 100 401 l 61 473 q 142 511 100 499 q 231 522 184 522 q 315 498 260 522 q 365 480 344 486 q 401 473 386 473 q 571 522 492 473 l 571 425 z "},"€":{"ha":729,"x_min":61,"x_max":668,"o":"m 304 0 q 132 72 202 0 q 61 243 61 143 l 61 729 q 132 900 61 829 q 304 972 203 972 l 668 972 l 668 729 l 304 729 q 257 720 279 729 q 218 693 235 710 q 192 654 201 677 q 182 607 182 632 l 547 607 l 547 522 l 182 522 l 182 450 l 547 450 l 547 364 l 182 364 q 192 317 182 339 q 218 278 201 295 q 257 252 235 262 q 304 243 279 243 l 668 243 l 668 0 l 304 0 z "},"‚":{"ha":292,"x_min":61,"x_max":231,"o":"m 110 -122 l 110 -74 l 182 -74 l 182 0 l 61 0 l 61 170 l 231 170 l 231 -122 l 110 -122 z "},"ƒ":{"ha":699,"x_min":-182,"x_max":668,"o":"m 647 790 l 404 790 q 355 781 378 790 q 316 756 333 772 q 288 718 299 740 q 272 668 276 695 q 268 635 271 665 q 261 547 265 605 l 504 547 l 494 425 l 252 425 l 214 0 q 209 -50 212 -20 q 203 -122 207 -80 q 176 -217 197 -174 q 117 -296 155 -260 q -61 -366 43 -366 l -182 -366 l -161 -122 l -40 -122 q 9 -113 -14 -122 q 50 -87 32 -103 q 78 -48 67 -71 q 92 0 90 -26 l 161 790 q 248 962 172 893 q 425 1034 321 1034 l 668 1034 l 647 790 z "},"„":{"ha":558,"x_min":61,"x_max":498,"o":"m 110 -122 l 110 -74 l 182 -74 l 182 0 l 61 0 l 61 170 l 231 170 l 231 -122 l 110 -122 m 376 -122 l 376 -74 l 450 -74 l 450 0 l 328 0 l 328 170 l 498 170 l 498 -122 l 376 -122 z "},"…":{"ha":875,"x_min":61,"x_max":814,"o":"m 61 0 l 61 170 l 231 170 l 231 0 l 61 0 m 353 0 l 353 170 l 522 170 l 522 0 l 353 0 m 644 0 l 644 170 l 814 170 l 814 0 l 644 0 z "},"†":{"ha":607,"x_min":61,"x_max":547,"o":"m 364 607 l 364 -243 l 243 -243 l 243 607 l 61 607 l 61 729 l 243 729 l 243 972 l 364 972 l 364 729 l 547 729 l 547 607 l 364 607 z "},"‡":{"ha":607,"x_min":61,"x_max":547,"o":"m 364 243 l 364 -243 l 243 -243 l 243 243 l 61 243 l 61 364 l 243 364 l 243 607 l 61 607 l 61 729 l 243 729 l 243 972 l 364 972 l 364 729 l 547 729 l 547 607 l 364 607 l 364 364 l 547 364 l 547 243 l 364 243 z "},"ˆ":{"ha":412,"x_min":61,"x_max":353,"o":"m 279 802 l 207 904 l 134 802 l 61 802 l 158 972 l 256 972 l 353 802 l 279 802 z "},"‰":{"ha":1666,"x_min":61,"x_max":1604,"o":"m 425 699 q 418 734 425 718 q 398 763 410 751 q 370 783 386 776 q 335 790 353 790 l 243 790 q 208 783 224 790 q 179 763 191 776 q 159 734 166 751 q 151 699 151 718 l 151 607 q 159 572 151 589 q 179 544 166 556 q 208 524 191 531 q 243 517 224 517 l 335 517 q 371 524 354 517 q 399 543 387 530 q 418 571 412 555 q 425 607 425 587 l 425 699 m 1149 364 q 1141 399 1149 382 q 1121 428 1134 416 q 1092 448 1109 441 q 1057 456 1076 456 l 966 456 q 931 448 948 456 q 902 428 915 441 q 882 399 890 416 q 875 364 875 382 l 875 273 q 882 238 875 255 q 902 209 890 222 q 931 189 915 197 q 966 182 948 182 l 1057 182 q 1094 189 1077 182 q 1122 208 1110 196 q 1142 237 1135 220 q 1149 273 1149 254 l 1149 364 m 1512 364 q 1505 399 1512 382 q 1486 428 1498 416 q 1457 448 1474 441 q 1422 456 1441 456 l 1331 456 q 1295 448 1312 456 q 1266 428 1278 441 q 1246 399 1253 416 q 1239 364 1239 382 l 1239 273 q 1246 237 1239 254 q 1265 208 1253 220 q 1294 189 1277 196 q 1331 182 1311 182 l 1422 182 q 1457 189 1441 182 q 1486 209 1474 197 q 1505 238 1498 222 q 1512 273 1512 255 l 1512 364 m 517 517 q 503 446 517 478 q 463 386 490 414 q 405 348 437 360 q 335 335 372 335 l 243 335 q 114 387 168 335 q 61 517 61 441 l 61 790 q 114 918 61 865 q 243 972 168 972 l 335 972 q 404 959 372 972 q 463 918 437 945 q 517 790 517 866 l 517 517 m 589 0 l 589 972 l 711 972 l 711 0 l 589 0 m 1604 182 q 1550 53 1604 106 q 1422 0 1496 0 l 1379 0 q 1319 9 1349 0 q 1265 35 1290 18 q 1222 76 1241 52 q 1194 127 1204 99 q 1166 76 1185 99 q 1123 35 1147 52 q 1068 9 1098 18 q 1008 0 1039 0 l 966 0 q 838 53 890 0 q 783 182 783 107 l 783 456 q 838 585 783 530 q 966 637 890 637 l 1008 637 q 1068 628 1039 637 q 1123 602 1098 619 q 1166 562 1147 585 q 1194 510 1185 538 q 1222 562 1204 538 q 1265 602 1241 585 q 1319 628 1290 619 q 1379 637 1349 637 l 1422 637 q 1550 585 1496 637 q 1604 456 1604 531 l 1604 182 z "},"Š":{"ha":729,"x_min":61,"x_max":668,"o":"m 668 243 q 597 72 668 144 q 425 0 525 0 l 61 0 l 61 243 l 395 243 q 430 250 413 243 q 459 270 446 258 q 479 299 471 283 q 486 335 486 316 q 479 370 486 353 q 459 398 471 386 q 430 418 446 410 q 395 425 413 425 l 304 425 q 211 444 254 425 q 132 497 168 462 q 61 668 61 568 l 61 729 q 132 900 61 829 q 304 972 203 972 l 668 972 l 668 729 l 335 729 q 299 722 316 729 q 270 702 283 715 q 250 673 258 690 q 243 637 243 656 q 250 602 243 618 q 270 574 258 586 q 299 554 283 562 q 335 547 316 547 l 425 547 q 518 529 475 547 q 597 475 561 511 q 668 304 668 404 l 668 243 m 412 1044 l 315 1044 l 218 1215 l 292 1215 l 364 1112 l 437 1215 l 510 1215 l 412 1044 z "},"‹":{"ha":481,"x_min":61,"x_max":419,"o":"m 366 239 l 61 437 l 61 534 l 366 733 l 419 652 l 164 486 l 419 321 l 366 239 z "},"Œ":{"ha":1034,"x_min":61,"x_max":972,"o":"m 547 607 q 537 654 547 632 q 511 693 528 677 q 472 720 494 710 q 425 729 450 729 l 304 729 q 257 720 279 729 q 218 693 235 710 q 192 654 201 677 q 182 607 182 632 l 182 364 q 192 317 182 339 q 218 278 201 295 q 257 252 235 262 q 304 243 279 243 l 425 243 q 473 252 451 243 q 512 278 496 262 q 538 316 528 294 q 547 364 547 338 l 547 607 m 839 0 q 762 12 798 0 q 697 47 726 24 q 645 102 667 70 q 610 174 623 134 q 576 102 599 134 q 524 47 554 70 q 455 12 493 24 q 376 0 418 0 l 304 0 q 131 71 203 0 q 78 150 95 106 q 61 243 61 193 l 61 729 q 131 900 61 830 q 211 954 168 936 q 304 972 254 972 l 376 972 q 547 903 475 972 l 547 972 l 972 972 l 972 729 l 668 729 l 668 547 l 850 547 l 850 425 l 668 425 l 668 364 q 677 316 668 338 q 703 278 687 294 q 742 252 720 262 q 790 243 764 243 l 972 243 l 972 0 l 839 0 z "},"Ž":{"ha":729,"x_min":61,"x_max":668,"o":"m 61 0 l 61 243 l 486 729 l 61 729 l 61 972 l 668 972 l 668 729 l 243 243 l 668 243 l 668 0 l 61 0 m 412 1044 l 315 1044 l 218 1215 l 292 1215 l 364 1112 l 437 1215 l 510 1215 l 412 1044 z "},"‘":{"ha":292,"x_min":61,"x_max":231,"o":"m 61 742 l 61 1034 l 182 1034 l 182 985 l 110 985 l 110 911 l 231 911 l 231 742 l 61 742 z "},"’":{"ha":292,"x_min":61,"x_max":231,"o":"m 110 742 l 110 790 l 182 790 l 182 863 l 61 863 l 61 1034 l 231 1034 l 231 742 l 110 742 z "},"“":{"ha":558,"x_min":61,"x_max":498,"o":"m 61 742 l 61 1034 l 182 1034 l 182 985 l 110 985 l 110 911 l 231 911 l 231 742 l 61 742 m 328 742 l 328 1034 l 450 1034 l 450 985 l 376 985 l 376 911 l 498 911 l 498 742 l 328 742 z "},"”":{"ha":558,"x_min":61,"x_max":498,"o":"m 110 742 l 110 790 l 182 790 l 182 863 l 61 863 l 61 1034 l 231 1034 l 231 742 l 110 742 m 376 742 l 376 790 l 450 790 l 450 863 l 328 863 l 328 1034 l 498 1034 l 498 742 l 376 742 z "},"•":{"ha":547,"x_min":92,"x_max":456,"o":"m 456 340 q 446 292 456 314 q 420 253 437 269 q 382 228 404 237 q 335 218 360 218 l 212 218 q 165 228 187 218 q 127 254 143 237 q 101 293 111 271 q 92 340 92 315 l 92 510 q 101 557 92 535 q 127 596 111 580 q 165 623 143 613 q 212 632 187 632 l 335 632 q 382 623 360 632 q 420 596 404 613 q 446 557 437 580 q 456 510 456 535 l 456 340 z "},"–":{"ha":486,"x_min":61,"x_max":425,"o":"m 61 376 l 61 473 l 425 473 l 425 376 l 61 376 z "},"—":{"ha":729,"x_min":61,"x_max":668,"o":"m 61 376 l 61 473 l 668 473 l 668 376 l 61 376 z "},"˜":{"ha":486,"x_min":61,"x_max":425,"o":"m 425 875 q 370 838 400 850 q 304 827 340 827 q 243 850 279 827 q 182 875 207 875 q 116 863 146 875 q 61 827 85 852 l 61 924 q 116 961 85 949 q 182 972 146 972 q 210 966 195 972 q 243 947 224 960 q 304 924 279 924 q 370 935 340 924 q 425 972 400 947 l 425 875 z "},"™":{"ha":1361,"x_min":61,"x_max":1300,"o":"m 1210 364 l 1210 699 q 1202 734 1210 718 q 1182 763 1195 751 q 1153 783 1170 776 q 1118 790 1137 790 l 1026 790 q 990 783 1007 790 q 962 764 974 777 q 943 735 949 752 q 936 699 936 718 l 936 364 l 844 364 l 844 699 q 838 735 844 718 q 819 764 831 752 q 789 783 806 777 q 753 790 772 790 l 663 790 q 627 783 644 790 q 598 763 610 776 q 578 734 585 751 q 571 699 571 718 l 571 364 l 481 364 l 481 790 l 335 790 l 335 364 l 243 364 l 243 790 l 61 790 l 61 972 l 517 972 l 517 899 q 663 972 571 972 l 717 972 q 774 963 747 972 q 824 938 802 954 q 864 899 847 922 q 890 848 882 876 q 917 899 900 876 q 957 938 934 922 q 1007 963 980 954 q 1064 972 1034 972 l 1118 972 q 1247 918 1193 972 q 1300 790 1300 865 l 1300 364 l 1210 364 z "},"š":{"ha":729,"x_min":61,"x_max":668,"o":"m 668 243 q 597 72 668 144 q 425 0 525 0 l 61 0 l 61 243 l 425 243 q 469 260 451 243 q 486 304 486 278 q 481 328 486 317 q 468 347 477 338 q 449 359 460 355 q 425 364 437 364 l 304 364 q 132 436 203 364 q 61 607 61 507 q 132 779 61 708 q 304 850 202 850 l 668 850 l 668 607 l 304 607 q 260 590 278 607 q 243 547 243 572 q 261 504 243 522 q 304 486 279 486 l 425 486 q 518 468 475 486 q 597 414 561 450 q 668 243 668 343 m 412 924 l 315 924 l 218 1093 l 292 1093 l 364 991 l 437 1093 l 510 1093 l 412 924 z "},"›":{"ha":481,"x_min":61,"x_max":419,"o":"m 114 239 l 61 321 l 315 486 l 61 652 l 114 733 l 419 534 l 419 437 l 114 239 z "},"œ":{"ha":1093,"x_min":61,"x_max":1034,"o":"m 547 486 q 537 533 547 511 q 511 572 528 555 q 472 597 494 588 q 425 607 450 607 l 304 607 q 257 597 279 607 q 218 572 235 588 q 192 533 201 555 q 182 486 182 511 l 182 364 q 192 317 182 339 q 218 278 201 295 q 257 252 235 262 q 304 243 279 243 l 425 243 q 473 252 451 243 q 512 278 496 262 q 538 316 528 294 q 547 364 547 338 l 547 486 m 839 0 q 764 12 799 0 q 696 46 728 23 q 642 99 665 69 q 607 167 620 129 q 572 98 595 129 q 520 45 550 67 q 453 12 490 24 q 376 0 416 0 l 304 0 q 131 71 203 0 q 78 150 95 106 q 61 243 61 193 l 61 607 q 131 779 61 709 q 304 850 202 850 l 376 850 q 519 803 456 850 q 573 750 551 780 q 607 684 595 721 q 642 750 620 721 q 696 803 665 780 q 839 850 760 850 l 1034 850 l 1034 607 l 790 607 q 743 597 765 607 q 704 572 721 588 q 678 533 688 555 q 668 486 668 511 l 911 486 l 911 364 l 668 364 q 678 317 668 339 q 704 278 688 295 q 743 252 721 262 q 790 243 765 243 l 1034 243 l 1034 0 l 839 0 z "},"ž":{"ha":729,"x_min":61,"x_max":668,"o":"m 61 0 l 61 243 l 450 607 l 61 607 l 61 850 l 668 850 l 668 607 l 279 243 l 668 243 l 668 0 l 61 0 m 412 924 l 315 924 l 218 1093 l 292 1093 l 364 991 l 437 1093 l 510 1093 l 412 924 z "},"Ÿ":{"ha":729,"x_min":61,"x_max":668,"o":"m 668 534 q 651 441 668 484 q 597 363 634 398 q 425 292 526 292 l 425 0 l 304 0 l 304 292 q 132 363 202 292 q 79 441 96 398 q 61 534 61 484 l 61 972 l 182 972 l 182 656 q 192 609 182 631 q 218 570 201 587 q 257 544 235 553 q 304 534 279 534 l 425 534 q 473 544 451 534 q 512 570 496 553 q 538 608 528 586 q 547 656 547 630 l 547 972 l 668 972 l 668 534 m 182 1044 l 182 1166 l 304 1166 l 304 1044 l 182 1044 m 425 1044 l 425 1166 l 547 1166 l 547 1044 l 425 1044 z "},"¡":{"ha":292,"x_min":61,"x_max":231,"o":"m 61 -122 l 110 558 l 182 558 l 231 -122 l 61 -122 m 61 681 l 61 850 l 231 850 l 231 681 l 61 681 z "},"¢":{"ha":729,"x_min":61,"x_max":668,"o":"m 486 121 l 486 0 l 364 0 l 364 121 l 304 121 q 132 193 203 121 q 61 364 61 263 l 61 729 q 132 900 61 829 q 304 972 203 972 l 364 972 l 364 1093 l 486 1093 l 486 972 l 668 972 l 668 729 l 304 729 q 257 720 279 729 q 218 693 235 710 q 192 654 201 677 q 182 607 182 632 l 182 486 q 192 439 182 461 q 218 400 201 416 q 257 374 235 383 q 304 364 279 364 l 668 364 l 668 121 l 486 121 z "},"£":{"ha":729,"x_min":61,"x_max":668,"o":"m 61 0 l 61 790 q 131 962 61 893 q 304 1034 203 1034 l 547 1034 l 547 790 l 304 790 q 256 781 278 790 q 217 755 233 771 q 191 716 201 739 q 182 668 182 694 l 182 547 l 425 547 l 425 425 l 182 425 l 182 243 l 668 243 l 668 0 l 61 0 z "},"¤":{"ha":729,"x_min":61,"x_max":668,"o":"m 304 0 q 132 72 202 0 q 61 243 61 143 l 61 729 q 132 900 61 829 q 304 972 203 972 l 668 972 l 668 729 l 304 729 q 257 720 279 729 q 218 693 235 710 q 192 654 201 677 q 182 607 182 632 l 547 607 l 547 522 l 182 522 l 182 450 l 547 450 l 547 364 l 182 364 q 192 317 182 339 q 218 278 201 295 q 257 252 235 262 q 304 243 279 243 l 668 243 l 668 0 l 304 0 z "},"¥":{"ha":729,"x_min":61,"x_max":668,"o":"m 425 121 l 425 0 l 304 0 l 304 121 l 61 121 l 61 243 l 304 243 l 304 364 l 61 364 l 61 486 l 304 486 q 132 557 203 486 q 61 729 61 628 l 61 972 l 182 972 l 182 778 q 192 731 182 753 q 218 692 201 709 q 257 666 235 675 q 304 656 279 656 l 425 656 q 473 665 451 656 q 512 690 496 674 q 538 729 528 707 q 547 778 547 751 l 547 972 l 668 972 l 668 729 q 651 635 668 678 q 597 557 634 593 q 425 486 526 486 l 668 486 l 668 364 l 425 364 l 425 243 l 668 243 l 668 121 l 425 121 z "},"¦":{"ha":243,"x_min":61,"x_max":182,"o":"m 61 -122 l 61 401 l 182 401 l 182 -122 l 61 -122 m 61 571 l 61 1093 l 182 1093 l 182 571 l 61 571 z "},"§":{"ha":729,"x_min":61,"x_max":668,"o":"m 486 364 q 477 412 486 389 q 451 451 467 434 q 412 477 434 467 q 364 486 389 486 q 317 477 339 486 q 278 451 295 467 q 252 412 262 434 q 243 364 243 389 q 252 317 243 339 q 278 278 262 295 q 317 252 295 262 q 364 243 339 243 q 412 252 389 243 q 451 278 434 262 q 477 317 467 295 q 486 364 486 339 m 668 0 q 597 -171 668 -99 q 425 -243 526 -243 l 61 -243 l 61 0 l 425 0 q 468 18 450 0 q 486 61 486 36 q 481 84 486 73 q 468 103 477 95 q 449 116 460 111 q 425 121 437 121 l 304 121 q 132 193 203 121 q 61 364 61 263 q 143 547 61 473 q 82 629 102 584 q 61 729 61 674 q 132 900 61 829 q 304 972 203 972 l 668 972 l 668 729 l 304 729 q 261 711 279 729 q 243 668 243 693 q 248 645 243 656 q 261 626 252 634 q 280 612 269 617 q 304 607 292 607 l 425 607 q 597 536 524 607 q 668 364 668 465 q 586 182 668 256 q 668 0 668 109 z "},"¨":{"ha":486,"x_min":61,"x_max":425,"o":"m 61 850 l 61 972 l 182 972 l 182 850 l 61 850 m 304 850 l 304 972 l 425 972 l 425 850 l 304 850 z "},"©":{"ha":850,"x_min":61,"x_max":790,"o":"m 371 146 q 324 155 346 146 q 285 181 302 165 q 259 219 269 197 q 249 267 249 241 l 249 510 q 259 557 249 535 q 285 596 269 580 q 324 623 302 613 q 371 632 346 632 l 553 632 l 553 510 l 371 510 q 348 505 359 510 q 328 492 336 500 q 315 473 319 484 q 310 450 310 463 l 310 328 q 315 304 310 315 q 328 285 319 294 q 348 272 336 277 q 371 267 359 267 l 553 267 l 553 146 l 371 146 m 717 583 q 707 630 717 608 q 682 669 698 652 q 643 694 665 685 q 596 704 621 704 l 256 704 q 209 694 231 704 q 170 669 186 685 q 143 630 153 652 q 134 583 134 608 l 134 195 q 143 147 134 170 q 170 108 153 125 q 209 82 186 92 q 256 72 231 72 l 596 72 q 644 81 622 72 q 682 107 666 91 q 708 146 699 123 q 717 195 717 168 l 717 583 m 790 243 q 720 71 790 142 q 547 0 648 0 l 304 0 q 131 71 203 0 q 78 150 95 106 q 61 243 61 193 l 61 534 q 131 705 61 636 q 211 760 168 741 q 304 778 254 778 l 547 778 q 718 705 646 778 q 772 628 753 670 q 790 534 790 585 l 790 243 z "},"ª":{"ha":578,"x_min":61,"x_max":517,"o":"m 425 699 q 418 735 425 718 q 399 764 412 752 q 371 783 387 777 q 335 790 354 790 l 243 790 q 208 783 224 790 q 179 763 191 776 q 159 734 166 751 q 151 699 151 718 l 151 607 q 159 572 151 589 q 179 544 166 556 q 208 524 191 531 q 243 517 224 517 l 335 517 q 370 524 353 517 q 398 544 386 531 q 418 572 410 556 q 425 607 425 589 l 425 699 m 425 335 l 425 395 q 393 349 423 366 q 335 335 367 335 l 243 335 q 114 387 168 335 q 61 517 61 441 l 61 790 q 114 918 61 865 q 243 972 168 972 l 335 972 q 463 918 410 972 q 517 790 517 866 l 517 335 l 425 335 z "},"«":{"ha":844,"x_min":61,"x_max":783,"o":"m 366 0 l 61 199 l 61 296 l 366 493 l 419 412 l 164 248 l 419 82 l 366 0 m 730 0 l 425 199 l 425 296 l 730 493 l 783 412 l 529 248 l 783 82 l 730 0 z "},"¬":{"ha":607,"x_min":61,"x_max":547,"o":"m 450 256 l 450 376 l 61 376 l 61 473 l 547 473 l 547 256 l 450 256 z "},"®":{"ha":850,"x_min":61,"x_max":790,"o":"m 486 465 q 473 497 486 484 q 441 510 459 510 l 335 510 l 335 419 l 441 419 q 473 433 459 419 q 486 465 486 448 m 517 146 l 517 273 q 511 307 517 291 q 496 334 506 322 q 472 352 486 345 q 441 358 458 358 l 335 358 l 335 146 l 273 146 l 273 632 l 456 632 q 503 623 481 632 q 542 596 525 613 q 568 557 558 580 q 578 510 578 535 q 556 433 578 464 q 493 389 535 402 q 578 273 578 361 l 578 146 l 517 146 m 717 583 q 707 630 717 608 q 682 669 698 652 q 643 694 665 685 q 596 704 621 704 l 256 704 q 209 694 231 704 q 170 669 186 685 q 143 630 153 652 q 134 583 134 608 l 134 195 q 143 147 134 170 q 170 108 153 125 q 209 82 186 92 q 256 72 231 72 l 596 72 q 644 81 622 72 q 682 107 666 91 q 708 146 699 123 q 717 195 717 168 l 717 583 m 790 243 q 720 71 790 142 q 547 0 648 0 l 304 0 q 131 71 203 0 q 78 150 95 106 q 61 243 61 193 l 61 534 q 131 705 61 636 q 211 760 168 741 q 304 778 254 778 l 547 778 q 718 705 646 778 q 772 628 753 670 q 790 534 790 585 l 790 243 z "},"°":{"ha":412,"x_min":61,"x_max":353,"o":"m 304 888 q 297 925 304 907 q 276 956 289 943 q 244 977 262 969 q 207 985 227 985 q 169 977 186 985 q 138 956 151 969 q 117 925 125 943 q 110 888 110 907 q 117 849 110 867 q 138 818 125 831 q 169 798 151 805 q 207 790 186 790 q 244 798 227 790 q 276 818 262 805 q 297 849 289 831 q 304 888 304 867 m 353 888 q 310 783 353 826 q 207 742 269 742 q 150 752 176 742 q 103 783 124 762 q 61 888 61 825 q 103 990 61 948 q 150 1022 124 1011 q 207 1034 176 1034 q 263 1022 237 1034 q 310 990 289 1011 q 353 888 353 947 z "},"±":{"ha":607,"x_min":61,"x_max":547,"o":"m 61 0 l 61 97 l 547 97 l 547 0 l 61 0 m 353 437 l 353 243 l 256 243 l 256 437 l 61 437 l 61 534 l 256 534 l 256 729 l 353 729 l 353 534 l 547 534 l 547 437 l 353 437 z "},"²":{"ha":425,"x_min":61,"x_max":364,"o":"m 61 607 l 61 760 q 71 807 61 785 q 96 845 80 829 q 135 871 113 861 q 182 880 157 880 l 205 880 q 273 928 273 878 q 260 959 273 945 q 228 972 247 972 l 61 972 l 61 1093 l 243 1093 q 290 1084 268 1093 q 329 1058 312 1074 q 355 1020 345 1042 q 364 972 364 998 l 364 942 q 355 895 364 917 q 329 856 345 873 q 290 830 312 840 q 243 821 268 821 l 168 821 q 135 807 149 821 q 121 775 121 794 l 121 729 l 364 729 l 364 607 l 61 607 z "},"³":{"ha":425,"x_min":61,"x_max":364,"o":"m 364 729 q 355 682 364 704 q 329 643 345 660 q 290 617 312 627 q 243 607 268 607 l 61 607 l 61 729 l 228 729 q 260 743 247 729 q 273 775 273 758 q 260 807 273 794 q 228 821 247 821 l 121 821 l 121 880 l 228 880 q 260 895 247 880 q 273 928 273 909 q 260 959 273 945 q 228 972 247 972 l 61 972 l 61 1093 l 243 1093 q 292 1083 270 1093 q 331 1057 315 1074 q 355 1016 347 1040 q 364 966 364 993 q 358 928 364 947 q 341 895 352 910 q 314 868 330 880 q 281 850 299 856 q 364 729 364 823 z "},"´":{"ha":292,"x_min":61,"x_max":231,"o":"m 158 802 l 61 972 l 158 972 l 231 802 l 158 802 z "},"µ":{"ha":729,"x_min":61,"x_max":668,"o":"m 304 0 q 263 4 283 0 q 227 20 243 9 q 182 82 184 43 l 182 -243 l 61 -243 l 61 850 l 182 850 l 182 364 q 192 317 182 339 q 218 278 201 295 q 257 252 235 262 q 304 243 279 243 l 547 243 l 547 850 l 668 850 l 668 0 l 304 0 z "},"μ":{"ha":729,"x_min":61,"x_max":668,"o":"m 304 0 q 263 4 283 0 q 227 20 243 9 q 182 82 184 43 l 182 -243 l 61 -243 l 61 850 l 182 850 l 182 364 q 192 317 182 339 q 218 278 201 295 q 257 252 235 262 q 304 243 279 243 l 547 243 l 547 850 l 668 850 l 668 0 l 304 0 z "},"¶":{"ha":850,"x_min":61,"x_max":790,"o":"m 668 850 l 668 -243 l 547 -243 l 547 850 l 425 850 l 425 -243 l 304 -243 l 304 425 q 211 444 254 425 q 132 497 168 462 q 61 668 61 568 l 61 729 q 132 900 61 829 q 304 972 203 972 l 790 972 l 790 850 l 668 850 z "},"·":{"ha":292,"x_min":61,"x_max":231,"o":"m 61 340 l 61 510 l 231 510 l 231 340 l 61 340 z "},"¸":{"ha":315,"x_min":61,"x_max":256,"o":"m 256 -146 q 248 -184 256 -166 q 227 -215 240 -201 q 196 -235 214 -228 q 158 -243 178 -243 l 61 -243 l 72 -207 l 158 -207 q 181 -202 170 -207 q 200 -189 192 -197 q 214 -169 209 -180 q 218 -146 218 -158 q 214 -122 218 -134 q 200 -103 209 -111 q 181 -90 192 -94 q 158 -85 170 -85 l 97 -85 l 121 24 l 195 24 l 178 -52 q 209 -64 195 -55 q 234 -86 223 -73 q 250 -114 244 -98 q 256 -146 256 -130 z "},"¹":{"ha":243,"x_min":61,"x_max":182,"o":"m 61 607 l 61 729 l 92 729 l 92 972 l 61 972 l 61 1093 l 151 1093 l 151 729 l 182 729 l 182 607 l 61 607 z "},"º":{"ha":578,"x_min":61,"x_max":517,"o":"m 425 699 q 418 734 425 718 q 398 763 410 751 q 370 783 386 776 q 335 790 353 790 l 243 790 q 208 783 224 790 q 179 763 191 776 q 159 734 166 751 q 151 699 151 718 l 151 607 q 159 572 151 589 q 179 544 166 556 q 208 524 191 531 q 243 517 224 517 l 335 517 q 371 524 354 517 q 399 543 387 530 q 418 571 412 555 q 425 607 425 587 l 425 699 m 517 517 q 503 446 517 478 q 463 386 490 414 q 405 348 437 360 q 335 335 372 335 l 243 335 q 114 387 168 335 q 61 517 61 441 l 61 790 q 114 918 61 865 q 243 972 168 972 l 335 972 q 404 959 372 972 q 463 918 437 945 q 517 790 517 866 l 517 517 z "},"»":{"ha":844,"x_min":61,"x_max":783,"o":"m 114 0 l 61 82 l 315 248 l 61 412 l 114 493 l 419 296 l 419 199 l 114 0 m 479 0 l 425 82 l 681 248 l 425 412 l 479 493 l 783 296 l 783 199 l 479 0 z "},"¼":{"ha":607,"x_min":61,"x_max":547,"o":"m 376 0 l 376 68 l 182 68 l 182 292 l 231 292 l 231 165 l 376 165 l 376 389 l 425 389 l 425 0 l 376 0 m 61 450 l 61 522 l 547 522 l 547 450 l 61 450 m 256 583 l 256 681 l 279 681 l 279 875 l 256 875 l 256 972 l 328 972 l 328 681 l 353 681 l 353 583 l 256 583 z "},"½":{"ha":607,"x_min":61,"x_max":547,"o":"m 182 0 l 182 121 q 190 159 182 141 q 211 190 197 176 q 242 211 224 203 q 279 218 260 218 l 315 218 q 353 256 353 218 q 315 292 353 292 l 182 292 l 182 389 l 328 389 q 366 381 348 389 q 396 360 383 373 q 417 329 410 347 q 425 292 425 311 l 425 267 q 417 229 425 247 q 396 198 410 212 q 366 177 383 185 q 328 170 348 170 l 267 170 q 231 134 231 170 l 231 97 l 425 97 l 425 0 l 182 0 m 61 450 l 61 522 l 547 522 l 547 450 l 61 450 m 256 583 l 256 681 l 279 681 l 279 875 l 256 875 l 256 972 l 328 972 l 328 681 l 353 681 l 353 583 l 256 583 z "},"¾":{"ha":607,"x_min":61,"x_max":547,"o":"m 376 0 l 376 68 l 182 68 l 182 292 l 231 292 l 231 165 l 376 165 l 376 389 l 425 389 l 425 0 l 376 0 m 61 450 l 61 522 l 547 522 l 547 450 l 61 450 m 425 681 q 417 643 425 661 q 396 611 410 625 q 366 591 383 598 q 328 583 348 583 l 182 583 l 182 681 l 315 681 q 353 717 353 681 q 315 753 353 753 l 231 753 l 231 802 l 315 802 q 353 839 353 802 q 315 875 353 875 l 182 875 l 182 972 l 328 972 q 366 965 348 972 q 396 944 383 957 q 417 912 410 930 q 425 875 425 895 l 425 869 q 358 778 425 798 q 425 681 425 754 z "},"¿":{"ha":656,"x_min":61,"x_max":596,"o":"m 304 -122 q 211 -104 254 -122 q 132 -50 168 -85 q 61 121 61 21 q 132 293 61 222 q 304 364 202 364 l 400 364 l 412 558 l 486 558 l 510 243 l 304 243 q 261 225 279 243 q 243 182 243 207 q 248 159 243 170 q 261 139 252 148 q 280 126 269 131 q 304 121 292 121 l 596 121 l 596 -122 l 304 -122 m 364 681 l 364 850 l 534 850 l 534 681 l 364 681 z "},"À":{"ha":729,"x_min":61,"x_max":668,"o":"m 547 607 q 538 655 547 633 q 512 694 528 677 q 473 720 496 710 q 425 729 451 729 l 304 729 q 257 720 279 729 q 218 693 235 710 q 192 654 201 677 q 182 607 182 632 l 182 364 l 547 364 l 547 607 m 547 0 l 547 243 l 182 243 l 182 0 l 61 0 l 61 729 q 132 900 61 829 q 304 972 203 972 l 425 972 q 597 901 526 972 q 651 823 634 866 q 668 729 668 781 l 668 0 l 547 0 m 328 1044 l 231 1215 l 328 1215 l 401 1044 l 328 1044 z "},"Á":{"ha":729,"x_min":61,"x_max":668,"o":"m 547 607 q 538 655 547 633 q 512 694 528 677 q 473 720 496 710 q 425 729 451 729 l 304 729 q 257 720 279 729 q 218 693 235 710 q 192 654 201 677 q 182 607 182 632 l 182 364 l 547 364 l 547 607 m 547 0 l 547 243 l 182 243 l 182 0 l 61 0 l 61 729 q 132 900 61 829 q 304 972 203 972 l 425 972 q 597 901 526 972 q 651 823 634 866 q 668 729 668 781 l 668 0 l 547 0 m 401 1044 l 328 1044 l 401 1215 l 498 1215 l 401 1044 z "},"Â":{"ha":729,"x_min":61,"x_max":668,"o":"m 547 607 q 538 655 547 633 q 512 694 528 677 q 473 720 496 710 q 425 729 451 729 l 304 729 q 257 720 279 729 q 218 693 235 710 q 192 654 201 677 q 182 607 182 632 l 182 364 l 547 364 l 547 607 m 547 0 l 547 243 l 182 243 l 182 0 l 61 0 l 61 729 q 132 900 61 829 q 304 972 203 972 l 425 972 q 597 901 526 972 q 651 823 634 866 q 668 729 668 781 l 668 0 l 547 0 m 437 1044 l 364 1147 l 292 1044 l 218 1044 l 315 1215 l 412 1215 l 510 1044 l 437 1044 z "},"Ã":{"ha":729,"x_min":61,"x_max":668,"o":"m 547 607 q 538 655 547 633 q 512 694 528 677 q 473 720 496 710 q 425 729 451 729 l 304 729 q 257 720 279 729 q 218 693 235 710 q 192 654 201 677 q 182 607 182 632 l 182 364 l 547 364 l 547 607 m 547 0 l 547 243 l 182 243 l 182 0 l 61 0 l 61 729 q 132 900 61 829 q 304 972 203 972 l 425 972 q 597 901 526 972 q 651 823 634 866 q 668 729 668 781 l 668 0 l 547 0 m 547 1093 q 425 1044 494 1044 q 398 1051 414 1044 q 364 1069 382 1058 q 331 1087 347 1081 q 304 1093 316 1093 q 238 1081 269 1093 q 182 1044 207 1069 l 182 1141 q 238 1179 207 1167 q 304 1190 269 1190 q 364 1166 328 1190 q 398 1148 382 1155 q 425 1141 414 1141 q 547 1190 494 1141 l 547 1093 z "},"Ä":{"ha":729,"x_min":61,"x_max":668,"o":"m 547 607 q 538 655 547 633 q 512 694 528 677 q 473 720 496 710 q 425 729 451 729 l 304 729 q 257 720 279 729 q 218 693 235 710 q 192 654 201 677 q 182 607 182 632 l 182 364 l 547 364 l 547 607 m 547 0 l 547 243 l 182 243 l 182 0 l 61 0 l 61 729 q 132 900 61 829 q 304 972 203 972 l 425 972 q 597 901 526 972 q 651 823 634 866 q 668 729 668 781 l 668 0 l 547 0 m 182 1044 l 182 1166 l 304 1166 l 304 1044 l 182 1044 m 425 1044 l 425 1166 l 547 1166 l 547 1044 l 425 1044 z "},"Å":{"ha":729,"x_min":61,"x_max":668,"o":"m 547 607 q 538 655 547 633 q 512 694 528 677 q 473 720 496 710 q 425 729 451 729 l 304 729 q 257 720 279 729 q 218 693 235 710 q 192 654 201 677 q 182 607 182 632 l 182 364 l 547 364 l 547 607 m 461 1069 q 454 1107 461 1089 q 433 1138 446 1124 q 402 1159 420 1151 q 364 1166 385 1166 q 327 1159 345 1166 q 295 1138 309 1151 q 274 1107 282 1124 q 267 1069 267 1089 q 274 1031 267 1049 q 295 1001 282 1014 q 327 980 309 987 q 364 972 345 972 q 402 980 385 972 q 433 1001 420 987 q 454 1031 446 1014 q 461 1069 461 1049 m 547 0 l 547 243 l 182 243 l 182 0 l 61 0 l 61 729 q 75 812 61 773 q 117 885 88 851 q 260 968 173 951 q 229 1015 239 989 q 218 1069 218 1040 q 261 1173 218 1130 q 308 1204 282 1193 q 364 1215 334 1215 q 421 1204 395 1215 q 468 1173 447 1193 q 510 1069 510 1131 q 471 968 510 1009 q 612 885 558 951 q 668 729 668 819 l 668 0 l 547 0 z "},"Æ":{"ha":1034,"x_min":61,"x_max":972,"o":"m 547 607 q 538 655 547 633 q 512 694 528 677 q 473 720 496 710 q 425 729 451 729 l 304 729 q 257 720 279 729 q 218 693 235 710 q 192 654 201 677 q 182 607 182 632 l 182 364 l 547 364 l 547 607 m 790 0 q 696 18 739 0 q 616 71 653 35 q 547 243 547 140 l 182 243 l 182 0 l 61 0 l 61 729 q 132 900 61 829 q 304 972 203 972 l 376 972 q 547 904 475 972 l 547 972 l 972 972 l 972 729 l 668 729 l 668 547 l 850 547 l 850 425 l 668 425 l 668 364 q 677 316 668 338 q 703 278 687 294 q 742 252 720 262 q 790 243 764 243 l 972 243 l 972 0 l 790 0 z "},"Ç":{"ha":729,"x_min":61,"x_max":668,"o":"m 443 0 l 432 -52 q 464 -64 449 -55 q 488 -86 478 -73 q 504 -114 498 -98 q 510 -146 510 -130 q 502 -184 510 -166 q 481 -215 494 -201 q 450 -235 468 -228 q 412 -243 433 -243 l 315 -243 l 328 -207 l 412 -207 q 455 -189 437 -207 q 473 -146 473 -171 q 455 -103 473 -121 q 412 -85 437 -85 l 353 -85 l 372 0 l 304 0 q 132 72 202 0 q 61 243 61 143 l 61 729 q 132 900 61 829 q 304 972 203 972 l 668 972 l 668 729 l 304 729 q 257 720 279 729 q 218 693 235 710 q 192 654 201 677 q 182 607 182 632 l 182 364 q 192 317 182 339 q 218 278 201 295 q 257 252 235 262 q 304 243 279 243 l 668 243 l 668 0 l 443 0 z "},"È":{"ha":607,"x_min":61,"x_max":547,"o":"m 304 0 q 131 71 203 0 q 78 149 95 106 q 61 243 61 192 l 61 972 l 547 972 l 547 729 l 182 729 l 182 547 l 425 547 l 425 425 l 182 425 l 182 364 q 191 316 182 338 q 217 278 201 294 q 256 252 233 262 q 304 243 278 243 l 547 243 l 547 0 l 304 0 m 267 1044 l 170 1215 l 267 1215 l 340 1044 l 267 1044 z "},"É":{"ha":607,"x_min":61,"x_max":547,"o":"m 304 0 q 131 71 203 0 q 78 149 95 106 q 61 243 61 192 l 61 972 l 547 972 l 547 729 l 182 729 l 182 547 l 425 547 l 425 425 l 182 425 l 182 364 q 191 316 182 338 q 217 278 201 294 q 256 252 233 262 q 304 243 278 243 l 547 243 l 547 0 l 304 0 m 340 1044 l 267 1044 l 340 1215 l 437 1215 l 340 1044 z "},"Ê":{"ha":607,"x_min":61,"x_max":547,"o":"m 304 0 q 131 71 203 0 q 78 149 95 106 q 61 243 61 192 l 61 972 l 547 972 l 547 729 l 182 729 l 182 547 l 425 547 l 425 425 l 182 425 l 182 364 q 191 316 182 338 q 217 278 201 294 q 256 252 233 262 q 304 243 278 243 l 547 243 l 547 0 l 304 0 m 376 1044 l 304 1147 l 231 1044 l 158 1044 l 256 1215 l 353 1215 l 450 1044 l 376 1044 z "},"Ë":{"ha":607,"x_min":61,"x_max":547,"o":"m 304 0 q 131 71 203 0 q 78 149 95 106 q 61 243 61 192 l 61 972 l 547 972 l 547 729 l 182 729 l 182 547 l 425 547 l 425 425 l 182 425 l 182 364 q 191 316 182 338 q 217 278 201 294 q 256 252 233 262 q 304 243 278 243 l 547 243 l 547 0 l 304 0 m 121 1044 l 121 1166 l 243 1166 l 243 1044 l 121 1044 m 364 1044 l 364 1166 l 486 1166 l 486 1044 l 364 1044 z "},"Ì":{"ha":364,"x_min":49,"x_max":304,"o":"m 61 0 l 61 243 l 121 243 l 121 729 l 61 729 l 61 972 l 304 972 l 304 729 l 243 729 l 243 243 l 304 243 l 304 0 l 61 0 m 146 1044 l 49 1215 l 146 1215 l 218 1044 l 146 1044 z "},"Í":{"ha":364,"x_min":61,"x_max":315,"o":"m 61 0 l 61 243 l 121 243 l 121 729 l 61 729 l 61 972 l 304 972 l 304 729 l 243 729 l 243 243 l 304 243 l 304 0 l 61 0 m 218 1044 l 146 1044 l 218 1215 l 315 1215 l 218 1044 z "},"Î":{"ha":364,"x_min":36,"x_max":328,"o":"m 61 0 l 61 243 l 121 243 l 121 729 l 61 729 l 61 972 l 304 972 l 304 729 l 243 729 l 243 243 l 304 243 l 304 0 l 61 0 m 256 1044 l 182 1147 l 110 1044 l 36 1044 l 134 1215 l 231 1215 l 328 1044 l 256 1044 z "},"Ï":{"ha":364,"x_min":0,"x_max":364,"o":"m 61 0 l 61 243 l 121 243 l 121 729 l 61 729 l 61 972 l 304 972 l 304 729 l 243 729 l 243 243 l 304 243 l 304 0 l 61 0 m 0 1044 l 0 1166 l 121 1166 l 121 1044 l 0 1044 m 243 1044 l 243 1166 l 364 1166 l 364 1044 l 243 1044 z "},"Ð":{"ha":821,"x_min":31,"x_max":760,"o":"m 637 607 q 628 654 637 632 q 602 693 618 677 q 564 720 586 710 q 517 729 542 729 l 273 729 l 273 547 l 517 547 l 517 425 l 273 425 l 273 243 l 517 243 q 565 252 543 243 q 603 278 587 262 q 628 316 619 294 q 637 364 637 338 l 637 607 m 760 243 q 689 71 760 142 q 517 0 617 0 l 151 0 l 151 425 l 31 425 l 31 547 l 151 547 l 151 972 l 517 972 q 688 900 615 972 q 741 822 723 864 q 760 729 760 780 l 760 243 z "},"Ñ":{"ha":729,"x_min":61,"x_max":668,"o":"m 547 0 l 547 607 q 538 655 547 633 q 512 694 528 677 q 473 720 496 710 q 425 729 451 729 l 304 729 q 257 720 279 729 q 218 693 235 710 q 192 654 201 677 q 182 607 182 632 l 182 0 l 61 0 l 61 729 q 131 900 61 830 q 211 954 168 936 q 304 972 254 972 l 425 972 q 597 901 526 972 q 651 823 634 866 q 668 729 668 781 l 668 0 l 547 0 m 547 1093 q 425 1044 494 1044 q 398 1051 414 1044 q 364 1069 382 1058 q 331 1087 347 1081 q 304 1093 316 1093 q 238 1081 269 1093 q 182 1044 207 1069 l 182 1141 q 238 1179 207 1167 q 304 1190 269 1190 q 364 1166 328 1190 q 398 1148 382 1155 q 425 1141 414 1141 q 547 1190 494 1141 l 547 1093 z "},"Ò":{"ha":729,"x_min":61,"x_max":668,"o":"m 547 607 q 537 654 547 632 q 511 693 528 677 q 472 720 494 710 q 425 729 450 729 l 304 729 q 257 720 279 729 q 218 693 235 710 q 192 654 201 677 q 182 607 182 632 l 182 364 q 192 317 182 339 q 218 278 201 295 q 257 252 235 262 q 304 243 279 243 l 425 243 q 473 252 451 243 q 512 278 496 262 q 538 316 528 294 q 547 364 547 338 l 547 607 m 668 243 q 651 149 668 192 q 597 71 634 106 q 425 0 526 0 l 304 0 q 131 71 203 0 q 78 150 95 106 q 61 243 61 193 l 61 729 q 131 900 61 830 q 211 954 168 936 q 304 972 254 972 l 425 972 q 518 954 475 972 q 597 900 561 936 q 668 729 668 828 l 668 243 m 328 1044 l 231 1215 l 328 1215 l 401 1044 l 328 1044 z "},"Ó":{"ha":729,"x_min":61,"x_max":668,"o":"m 547 607 q 537 654 547 632 q 511 693 528 677 q 472 720 494 710 q 425 729 450 729 l 304 729 q 257 720 279 729 q 218 693 235 710 q 192 654 201 677 q 182 607 182 632 l 182 364 q 192 317 182 339 q 218 278 201 295 q 257 252 235 262 q 304 243 279 243 l 425 243 q 473 252 451 243 q 512 278 496 262 q 538 316 528 294 q 547 364 547 338 l 547 607 m 668 243 q 651 149 668 192 q 597 71 634 106 q 425 0 526 0 l 304 0 q 131 71 203 0 q 78 150 95 106 q 61 243 61 193 l 61 729 q 131 900 61 830 q 211 954 168 936 q 304 972 254 972 l 425 972 q 518 954 475 972 q 597 900 561 936 q 668 729 668 828 l 668 243 m 401 1044 l 328 1044 l 401 1215 l 498 1215 l 401 1044 z "},"Ô":{"ha":729,"x_min":61,"x_max":668,"o":"m 547 607 q 537 654 547 632 q 511 693 528 677 q 472 720 494 710 q 425 729 450 729 l 304 729 q 257 720 279 729 q 218 693 235 710 q 192 654 201 677 q 182 607 182 632 l 182 364 q 192 317 182 339 q 218 278 201 295 q 257 252 235 262 q 304 243 279 243 l 425 243 q 473 252 451 243 q 512 278 496 262 q 538 316 528 294 q 547 364 547 338 l 547 607 m 668 243 q 651 149 668 192 q 597 71 634 106 q 425 0 526 0 l 304 0 q 131 71 203 0 q 78 150 95 106 q 61 243 61 193 l 61 729 q 131 900 61 830 q 211 954 168 936 q 304 972 254 972 l 425 972 q 518 954 475 972 q 597 900 561 936 q 668 729 668 828 l 668 243 m 437 1044 l 364 1147 l 292 1044 l 218 1044 l 315 1215 l 412 1215 l 510 1044 l 437 1044 z "},"Õ":{"ha":729,"x_min":61,"x_max":668,"o":"m 547 607 q 537 654 547 632 q 511 693 528 677 q 472 720 494 710 q 425 729 450 729 l 304 729 q 257 720 279 729 q 218 693 235 710 q 192 654 201 677 q 182 607 182 632 l 182 364 q 192 317 182 339 q 218 278 201 295 q 257 252 235 262 q 304 243 279 243 l 425 243 q 473 252 451 243 q 512 278 496 262 q 538 316 528 294 q 547 364 547 338 l 547 607 m 668 243 q 651 149 668 192 q 597 71 634 106 q 425 0 526 0 l 304 0 q 131 71 203 0 q 78 150 95 106 q 61 243 61 193 l 61 729 q 131 900 61 830 q 211 954 168 936 q 304 972 254 972 l 425 972 q 518 954 475 972 q 597 900 561 936 q 668 729 668 828 l 668 243 m 547 1093 q 425 1044 494 1044 q 398 1051 414 1044 q 364 1069 382 1058 q 331 1087 347 1081 q 304 1093 316 1093 q 238 1081 269 1093 q 182 1044 207 1069 l 182 1141 q 238 1179 207 1167 q 304 1190 269 1190 q 364 1166 328 1190 q 398 1148 382 1155 q 425 1141 414 1141 q 547 1190 494 1141 l 547 1093 z "},"Ö":{"ha":729,"x_min":61,"x_max":668,"o":"m 547 607 q 537 654 547 632 q 511 693 528 677 q 472 720 494 710 q 425 729 450 729 l 304 729 q 257 720 279 729 q 218 693 235 710 q 192 654 201 677 q 182 607 182 632 l 182 364 q 192 317 182 339 q 218 278 201 295 q 257 252 235 262 q 304 243 279 243 l 425 243 q 473 252 451 243 q 512 278 496 262 q 538 316 528 294 q 547 364 547 338 l 547 607 m 668 243 q 651 149 668 192 q 597 71 634 106 q 425 0 526 0 l 304 0 q 131 71 203 0 q 78 150 95 106 q 61 243 61 193 l 61 729 q 131 900 61 830 q 211 954 168 936 q 304 972 254 972 l 425 972 q 518 954 475 972 q 597 900 561 936 q 668 729 668 828 l 668 243 m 182 1044 l 182 1166 l 304 1166 l 304 1044 l 182 1044 m 425 1044 l 425 1166 l 547 1166 l 547 1044 l 425 1044 z "},"×":{"ha":568,"x_min":61,"x_max":509,"o":"m 439 201 l 285 355 l 131 201 l 61 271 l 215 425 l 61 579 l 131 648 l 285 494 l 439 648 l 509 579 l 354 425 l 509 271 l 439 201 z "},"Ø":{"ha":729,"x_min":0,"x_max":729,"o":"m 547 607 q 543 636 547 623 q 532 665 539 650 l 239 262 q 304 243 269 243 l 425 243 q 473 252 451 243 q 512 278 496 262 q 538 316 528 294 q 547 364 547 338 l 547 607 m 490 710 q 459 725 475 720 q 425 729 443 729 l 304 729 q 257 720 279 729 q 218 693 235 710 q 192 654 201 677 q 182 607 182 632 l 182 364 q 197 307 182 334 l 490 710 m 648 825 q 664 778 659 802 q 668 729 668 754 l 668 243 q 651 149 668 192 q 597 71 634 106 q 425 0 526 0 l 304 0 q 114 92 189 0 l 49 0 l 0 36 l 81 147 q 65 194 70 170 q 61 243 61 217 l 61 729 q 131 900 61 830 q 211 954 168 936 q 304 972 254 972 l 425 972 q 530 950 483 972 q 615 880 578 927 l 681 972 l 729 936 l 648 825 z "},"Ù":{"ha":729,"x_min":61,"x_max":668,"o":"m 668 243 q 651 149 668 192 q 597 71 634 106 q 425 0 526 0 l 304 0 q 131 71 203 0 q 78 150 95 106 q 61 243 61 193 l 61 972 l 182 972 l 182 364 q 192 317 182 339 q 218 278 201 295 q 257 252 235 262 q 304 243 279 243 l 425 243 q 473 252 451 243 q 512 278 496 262 q 538 316 528 294 q 547 364 547 338 l 547 972 l 668 972 l 668 243 m 328 1044 l 231 1215 l 328 1215 l 401 1044 l 328 1044 z "},"Ú":{"ha":729,"x_min":61,"x_max":668,"o":"m 668 243 q 651 149 668 192 q 597 71 634 106 q 425 0 526 0 l 304 0 q 131 71 203 0 q 78 150 95 106 q 61 243 61 193 l 61 972 l 182 972 l 182 364 q 192 317 182 339 q 218 278 201 295 q 257 252 235 262 q 304 243 279 243 l 425 243 q 473 252 451 243 q 512 278 496 262 q 538 316 528 294 q 547 364 547 338 l 547 972 l 668 972 l 668 243 m 401 1044 l 328 1044 l 401 1215 l 498 1215 l 401 1044 z "},"Û":{"ha":729,"x_min":61,"x_max":668,"o":"m 668 243 q 651 149 668 192 q 597 71 634 106 q 425 0 526 0 l 304 0 q 131 71 203 0 q 78 150 95 106 q 61 243 61 193 l 61 972 l 182 972 l 182 364 q 192 317 182 339 q 218 278 201 295 q 257 252 235 262 q 304 243 279 243 l 425 243 q 473 252 451 243 q 512 278 496 262 q 538 316 528 294 q 547 364 547 338 l 547 972 l 668 972 l 668 243 m 437 1044 l 364 1147 l 292 1044 l 218 1044 l 315 1215 l 412 1215 l 510 1044 l 437 1044 z "},"Ü":{"ha":729,"x_min":61,"x_max":668,"o":"m 668 243 q 651 149 668 192 q 597 71 634 106 q 425 0 526 0 l 304 0 q 131 71 203 0 q 78 150 95 106 q 61 243 61 193 l 61 972 l 182 972 l 182 364 q 192 317 182 339 q 218 278 201 295 q 257 252 235 262 q 304 243 279 243 l 425 243 q 473 252 451 243 q 512 278 496 262 q 538 316 528 294 q 547 364 547 338 l 547 972 l 668 972 l 668 243 m 182 1044 l 182 1166 l 304 1166 l 304 1044 l 182 1044 m 425 1044 l 425 1166 l 547 1166 l 547 1044 l 425 1044 z "},"Ý":{"ha":729,"x_min":61,"x_max":668,"o":"m 668 534 q 651 441 668 484 q 597 363 634 398 q 425 292 526 292 l 425 0 l 304 0 l 304 292 q 132 363 202 292 q 79 441 96 398 q 61 534 61 484 l 61 972 l 182 972 l 182 656 q 192 609 182 631 q 218 570 201 587 q 257 544 235 553 q 304 534 279 534 l 425 534 q 473 544 451 534 q 512 570 496 553 q 538 608 528 586 q 547 656 547 630 l 547 972 l 668 972 l 668 534 m 401 1044 l 328 1044 l 401 1215 l 498 1215 l 401 1044 z "},"Þ":{"ha":729,"x_min":61,"x_max":668,"o":"m 486 425 q 479 460 486 444 q 459 489 471 477 q 430 509 446 502 q 395 517 413 517 l 182 517 l 182 335 l 395 335 q 430 342 413 335 q 459 361 446 349 q 479 390 471 374 q 486 425 486 406 m 668 456 q 597 285 668 355 q 518 231 561 249 q 425 212 475 212 l 182 212 l 182 0 l 61 0 l 61 972 l 182 972 l 182 760 l 425 760 q 518 741 475 760 q 597 688 561 723 q 668 517 668 616 l 668 456 z "},"ß":{"ha":729,"x_min":61,"x_max":668,"o":"m 668 243 q 597 72 668 144 q 425 0 525 0 l 304 0 l 304 243 l 395 243 q 430 250 413 243 q 459 270 446 258 q 479 299 471 283 q 486 335 486 316 q 479 370 486 353 q 459 398 471 386 q 430 418 446 410 q 395 425 413 425 l 304 425 l 304 547 l 395 547 q 430 554 413 547 q 459 574 446 562 q 479 602 471 586 q 486 637 486 618 q 479 673 486 656 q 459 702 471 690 q 430 722 446 715 q 395 729 413 729 l 273 729 q 238 722 255 729 q 209 702 222 715 q 189 673 197 690 q 182 637 182 656 l 182 -122 l 61 -122 l 61 729 q 131 901 61 832 q 304 972 203 972 l 425 972 q 518 954 475 972 q 597 900 561 936 q 668 729 668 828 l 668 717 q 656 642 668 678 q 621 575 645 606 q 568 520 597 543 q 500 486 538 498 q 571 450 540 473 q 624 394 603 426 q 657 323 646 362 q 668 243 668 285 z "},"à":{"ha":729,"x_min":61,"x_max":668,"o":"m 547 486 q 538 534 547 512 q 512 572 528 556 q 473 598 496 589 q 425 607 451 607 l 304 607 q 257 597 279 607 q 218 572 235 588 q 192 533 201 555 q 182 486 182 511 l 182 364 q 192 317 182 339 q 218 278 201 295 q 257 252 235 262 q 304 243 279 243 l 425 243 q 472 252 450 243 q 511 278 494 262 q 537 317 528 295 q 547 364 547 339 l 547 486 m 547 0 l 547 82 q 503 20 545 43 q 466 4 486 9 q 425 0 446 0 l 304 0 q 132 72 202 0 q 61 243 61 143 l 61 607 q 132 779 61 708 q 304 850 202 850 l 425 850 q 519 833 476 850 q 597 781 562 817 q 651 701 634 745 q 668 607 668 658 l 668 0 l 547 0 m 328 924 l 231 1093 l 328 1093 l 401 924 l 328 924 z "},"á":{"ha":729,"x_min":61,"x_max":668,"o":"m 547 486 q 538 534 547 512 q 512 572 528 556 q 473 598 496 589 q 425 607 451 607 l 304 607 q 257 597 279 607 q 218 572 235 588 q 192 533 201 555 q 182 486 182 511 l 182 364 q 192 317 182 339 q 218 278 201 295 q 257 252 235 262 q 304 243 279 243 l 425 243 q 472 252 450 243 q 511 278 494 262 q 537 317 528 295 q 547 364 547 339 l 547 486 m 547 0 l 547 82 q 503 20 545 43 q 466 4 486 9 q 425 0 446 0 l 304 0 q 132 72 202 0 q 61 243 61 143 l 61 607 q 132 779 61 708 q 304 850 202 850 l 425 850 q 519 833 476 850 q 597 781 562 817 q 651 701 634 745 q 668 607 668 658 l 668 0 l 547 0 m 401 924 l 328 924 l 401 1093 l 498 1093 l 401 924 z "},"â":{"ha":729,"x_min":61,"x_max":668,"o":"m 547 486 q 538 534 547 512 q 512 572 528 556 q 473 598 496 589 q 425 607 451 607 l 304 607 q 257 597 279 607 q 218 572 235 588 q 192 533 201 555 q 182 486 182 511 l 182 364 q 192 317 182 339 q 218 278 201 295 q 257 252 235 262 q 304 243 279 243 l 425 243 q 472 252 450 243 q 511 278 494 262 q 537 317 528 295 q 547 364 547 339 l 547 486 m 547 0 l 547 82 q 503 20 545 43 q 466 4 486 9 q 425 0 446 0 l 304 0 q 132 72 202 0 q 61 243 61 143 l 61 607 q 132 779 61 708 q 304 850 202 850 l 425 850 q 519 833 476 850 q 597 781 562 817 q 651 701 634 745 q 668 607 668 658 l 668 0 l 547 0 m 437 924 l 364 1025 l 292 924 l 218 924 l 315 1093 l 412 1093 l 510 924 l 437 924 z "},"ã":{"ha":729,"x_min":61,"x_max":668,"o":"m 547 486 q 538 534 547 512 q 512 572 528 556 q 473 598 496 589 q 425 607 451 607 l 304 607 q 257 597 279 607 q 218 572 235 588 q 192 533 201 555 q 182 486 182 511 l 182 364 q 192 317 182 339 q 218 278 201 295 q 257 252 235 262 q 304 243 279 243 l 425 243 q 472 252 450 243 q 511 278 494 262 q 537 317 528 295 q 547 364 547 339 l 547 486 m 547 0 l 547 82 q 503 20 545 43 q 466 4 486 9 q 425 0 446 0 l 304 0 q 132 72 202 0 q 61 243 61 143 l 61 607 q 132 779 61 708 q 304 850 202 850 l 425 850 q 519 833 476 850 q 597 781 562 817 q 651 701 634 745 q 668 607 668 658 l 668 0 l 547 0 m 547 972 q 491 935 522 947 q 425 924 460 924 q 364 947 401 924 q 304 972 328 972 q 238 961 269 972 q 182 924 207 949 l 182 1021 q 238 1058 207 1046 q 304 1069 269 1069 q 331 1063 316 1069 q 364 1044 347 1057 q 398 1027 382 1033 q 425 1021 414 1021 q 547 1069 496 1021 l 547 972 z "},"ä":{"ha":729,"x_min":61,"x_max":668,"o":"m 547 486 q 538 534 547 512 q 512 572 528 556 q 473 598 496 589 q 425 607 451 607 l 304 607 q 257 597 279 607 q 218 572 235 588 q 192 533 201 555 q 182 486 182 511 l 182 364 q 192 317 182 339 q 218 278 201 295 q 257 252 235 262 q 304 243 279 243 l 425 243 q 472 252 450 243 q 511 278 494 262 q 537 317 528 295 q 547 364 547 339 l 547 486 m 547 0 l 547 82 q 503 20 545 43 q 466 4 486 9 q 425 0 446 0 l 304 0 q 132 72 202 0 q 61 243 61 143 l 61 607 q 132 779 61 708 q 304 850 202 850 l 425 850 q 519 833 476 850 q 597 781 562 817 q 651 701 634 745 q 668 607 668 658 l 668 0 l 547 0 m 182 924 l 182 1044 l 304 1044 l 304 924 l 182 924 m 425 924 l 425 1044 l 547 1044 l 547 924 l 425 924 z "},"å":{"ha":729,"x_min":61,"x_max":668,"o":"m 547 486 q 538 534 547 512 q 512 572 528 556 q 473 598 496 589 q 425 607 451 607 l 304 607 q 257 597 279 607 q 218 572 235 588 q 192 533 201 555 q 182 486 182 511 l 182 364 q 192 317 182 339 q 218 278 201 295 q 257 252 235 262 q 304 243 279 243 l 425 243 q 472 252 450 243 q 511 278 494 262 q 537 317 528 295 q 547 364 547 339 l 547 486 m 461 1069 q 454 1107 461 1089 q 433 1138 446 1124 q 402 1159 420 1151 q 364 1166 385 1166 q 327 1159 345 1166 q 295 1138 309 1151 q 274 1107 282 1124 q 267 1069 267 1089 q 274 1031 267 1049 q 295 1001 282 1014 q 327 980 309 987 q 364 972 345 972 q 402 980 385 972 q 433 1001 420 987 q 454 1031 446 1014 q 461 1069 461 1049 m 547 0 l 547 82 q 503 20 545 43 q 466 4 486 9 q 425 0 446 0 l 304 0 q 132 72 202 0 q 61 243 61 143 l 61 607 q 132 779 61 708 q 304 850 202 850 l 425 850 q 519 833 476 850 q 597 781 562 817 q 651 701 634 745 q 668 607 668 658 l 668 0 l 547 0 m 510 1069 q 468 966 510 1008 q 421 934 447 945 q 364 924 395 924 q 308 934 334 924 q 261 966 282 945 q 218 1069 218 1009 q 261 1173 218 1130 q 308 1204 282 1193 q 364 1215 334 1215 q 421 1204 395 1215 q 468 1173 447 1193 q 510 1069 510 1131 z "},"æ":{"ha":1093,"x_min":61,"x_max":1034,"o":"m 547 486 q 538 534 547 512 q 512 572 528 556 q 473 598 496 589 q 425 607 451 607 l 304 607 q 257 597 279 607 q 218 572 235 588 q 192 533 201 555 q 182 486 182 511 l 182 364 q 192 317 182 339 q 218 278 201 295 q 257 252 235 262 q 304 243 279 243 l 425 243 q 472 252 450 243 q 511 278 494 262 q 537 317 528 295 q 547 364 547 339 l 547 486 m 839 0 q 668 71 740 0 l 668 0 l 547 0 l 547 82 q 503 20 545 43 q 466 4 486 9 q 425 0 446 0 l 304 0 q 132 72 202 0 q 61 243 61 143 l 61 607 q 132 779 61 708 q 304 850 202 850 l 376 850 q 453 838 416 850 q 520 805 490 826 q 572 753 550 783 q 607 685 595 722 q 696 804 633 758 q 839 850 760 850 l 1034 850 l 1034 607 l 790 607 q 743 597 765 607 q 704 572 721 588 q 678 533 688 555 q 668 486 668 511 l 911 486 l 911 364 l 668 364 q 678 317 668 339 q 704 278 688 295 q 743 252 721 262 q 790 243 765 243 l 1034 243 l 1034 0 l 839 0 z "},"ç":{"ha":729,"x_min":61,"x_max":668,"o":"m 443 0 l 432 -52 q 464 -64 449 -55 q 488 -86 478 -73 q 504 -114 498 -98 q 510 -146 510 -130 q 502 -184 510 -166 q 481 -215 494 -201 q 450 -235 468 -228 q 412 -243 433 -243 l 315 -243 l 328 -207 l 412 -207 q 455 -189 437 -207 q 473 -146 473 -171 q 455 -103 473 -121 q 412 -85 437 -85 l 353 -85 l 372 0 l 304 0 q 132 72 202 0 q 61 243 61 143 l 61 607 q 132 779 61 708 q 304 850 202 850 l 668 850 l 668 607 l 304 607 q 257 597 279 607 q 218 572 235 588 q 192 533 201 555 q 182 486 182 511 l 182 364 q 192 317 182 339 q 218 278 201 295 q 257 252 235 262 q 304 243 279 243 l 668 243 l 668 0 l 443 0 z "},"è":{"ha":729,"x_min":61,"x_max":668,"o":"m 304 0 q 132 72 202 0 q 61 243 61 143 l 61 607 q 132 779 61 708 q 304 850 202 850 l 668 850 l 668 607 l 304 607 q 257 597 279 607 q 218 572 235 588 q 192 533 201 555 q 182 486 182 511 l 547 486 l 547 364 l 182 364 q 192 317 182 339 q 218 278 201 295 q 257 252 235 262 q 304 243 279 243 l 668 243 l 668 0 l 304 0 m 328 924 l 231 1093 l 328 1093 l 401 924 l 328 924 z "},"é":{"ha":729,"x_min":61,"x_max":668,"o":"m 304 0 q 132 72 202 0 q 61 243 61 143 l 61 607 q 132 779 61 708 q 304 850 202 850 l 668 850 l 668 607 l 304 607 q 257 597 279 607 q 218 572 235 588 q 192 533 201 555 q 182 486 182 511 l 547 486 l 547 364 l 182 364 q 192 317 182 339 q 218 278 201 295 q 257 252 235 262 q 304 243 279 243 l 668 243 l 668 0 l 304 0 m 401 924 l 328 924 l 401 1093 l 498 1093 l 401 924 z "},"ê":{"ha":729,"x_min":61,"x_max":668,"o":"m 304 0 q 132 72 202 0 q 61 243 61 143 l 61 607 q 132 779 61 708 q 304 850 202 850 l 668 850 l 668 607 l 304 607 q 257 597 279 607 q 218 572 235 588 q 192 533 201 555 q 182 486 182 511 l 547 486 l 547 364 l 182 364 q 192 317 182 339 q 218 278 201 295 q 257 252 235 262 q 304 243 279 243 l 668 243 l 668 0 l 304 0 m 437 924 l 364 1025 l 292 924 l 218 924 l 315 1093 l 412 1093 l 510 924 l 437 924 z "},"ë":{"ha":729,"x_min":61,"x_max":668,"o":"m 304 0 q 132 72 202 0 q 61 243 61 143 l 61 607 q 132 779 61 708 q 304 850 202 850 l 668 850 l 668 607 l 304 607 q 257 597 279 607 q 218 572 235 588 q 192 533 201 555 q 182 486 182 511 l 547 486 l 547 364 l 182 364 q 192 317 182 339 q 218 278 201 295 q 257 252 235 262 q 304 243 279 243 l 668 243 l 668 0 l 304 0 m 182 924 l 182 1044 l 304 1044 l 304 924 l 182 924 m 425 924 l 425 1044 l 547 1044 l 547 924 l 425 924 z "},"ì":{"ha":243,"x_min":-12,"x_max":182,"o":"m 61 0 l 61 850 l 182 850 l 182 0 l 61 0 m 85 924 l -12 1093 l 85 1093 l 158 924 l 85 924 z "},"í":{"ha":243,"x_min":61,"x_max":256,"o":"m 61 0 l 61 850 l 182 850 l 182 0 l 61 0 m 158 924 l 85 924 l 158 1093 l 256 1093 l 158 924 z "},"î":{"ha":243,"x_min":-25,"x_max":267,"o":"m 61 0 l 61 850 l 182 850 l 182 0 l 61 0 m 195 924 l 121 1025 l 49 924 l -25 924 l 72 1093 l 170 1093 l 267 924 l 195 924 z "},"ï":{"ha":243,"x_min":-61,"x_max":304,"o":"m 61 0 l 61 850 l 182 850 l 182 0 l 61 0 m -61 924 l -61 1044 l 61 1044 l 61 924 l -61 924 m 182 924 l 182 1044 l 304 1044 l 304 924 l 182 924 z "},"ð":{"ha":729,"x_min":61,"x_max":790,"o":"m 547 486 q 537 533 547 511 q 511 572 528 555 q 472 597 494 588 q 425 607 450 607 l 304 607 q 257 597 279 607 q 218 572 235 588 q 192 533 201 555 q 182 486 182 511 l 182 364 q 192 317 182 339 q 218 278 201 295 q 257 252 235 262 q 304 243 279 243 l 425 243 q 473 252 451 243 q 512 278 496 262 q 538 316 528 294 q 547 364 547 338 l 547 486 m 668 911 l 668 243 q 651 149 668 192 q 597 71 634 106 q 425 0 526 0 l 304 0 q 132 72 202 0 q 61 243 61 143 l 61 607 q 132 779 61 708 q 304 850 202 850 l 425 850 q 466 845 446 850 q 503 831 486 841 q 547 770 545 807 l 547 911 l 425 911 l 425 1034 l 790 1034 l 790 911 l 668 911 z "},"ñ":{"ha":729,"x_min":61,"x_max":668,"o":"m 547 0 l 547 486 q 538 534 547 512 q 512 572 528 556 q 473 598 496 589 q 425 607 451 607 l 304 607 q 257 597 279 607 q 218 572 235 588 q 192 533 201 555 q 182 486 182 511 l 182 0 l 61 0 l 61 607 q 131 779 61 709 q 304 850 202 850 l 425 850 q 519 833 476 850 q 597 781 562 817 q 651 701 634 745 q 668 607 668 658 l 668 0 l 547 0 m 547 972 q 491 935 522 947 q 425 924 460 924 q 364 947 401 924 q 304 972 328 972 q 238 961 269 972 q 182 924 207 949 l 182 1021 q 238 1058 207 1046 q 304 1069 269 1069 q 331 1063 316 1069 q 364 1044 347 1057 q 398 1027 382 1033 q 425 1021 414 1021 q 547 1069 496 1021 l 547 972 z "},"ò":{"ha":729,"x_min":61,"x_max":668,"o":"m 547 486 q 537 533 547 511 q 511 572 528 555 q 472 597 494 588 q 425 607 450 607 l 304 607 q 257 597 279 607 q 218 572 235 588 q 192 533 201 555 q 182 486 182 511 l 182 364 q 192 317 182 339 q 218 278 201 295 q 257 252 235 262 q 304 243 279 243 l 425 243 q 473 252 451 243 q 512 278 496 262 q 538 316 528 294 q 547 364 547 338 l 547 486 m 668 243 q 651 149 668 192 q 597 71 634 106 q 425 0 526 0 l 304 0 q 131 71 203 0 q 78 150 95 106 q 61 243 61 193 l 61 607 q 131 779 61 709 q 304 850 202 850 l 425 850 q 597 779 525 850 q 668 607 668 707 l 668 243 m 328 924 l 231 1093 l 328 1093 l 401 924 l 328 924 z "},"ó":{"ha":729,"x_min":61,"x_max":668,"o":"m 547 486 q 537 533 547 511 q 511 572 528 555 q 472 597 494 588 q 425 607 450 607 l 304 607 q 257 597 279 607 q 218 572 235 588 q 192 533 201 555 q 182 486 182 511 l 182 364 q 192 317 182 339 q 218 278 201 295 q 257 252 235 262 q 304 243 279 243 l 425 243 q 473 252 451 243 q 512 278 496 262 q 538 316 528 294 q 547 364 547 338 l 547 486 m 668 243 q 651 149 668 192 q 597 71 634 106 q 425 0 526 0 l 304 0 q 131 71 203 0 q 78 150 95 106 q 61 243 61 193 l 61 607 q 131 779 61 709 q 304 850 202 850 l 425 850 q 597 779 525 850 q 668 607 668 707 l 668 243 m 401 924 l 328 924 l 401 1093 l 498 1093 l 401 924 z "},"ô":{"ha":729,"x_min":61,"x_max":668,"o":"m 547 486 q 537 533 547 511 q 511 572 528 555 q 472 597 494 588 q 425 607 450 607 l 304 607 q 257 597 279 607 q 218 572 235 588 q 192 533 201 555 q 182 486 182 511 l 182 364 q 192 317 182 339 q 218 278 201 295 q 257 252 235 262 q 304 243 279 243 l 425 243 q 473 252 451 243 q 512 278 496 262 q 538 316 528 294 q 547 364 547 338 l 547 486 m 668 243 q 651 149 668 192 q 597 71 634 106 q 425 0 526 0 l 304 0 q 131 71 203 0 q 78 150 95 106 q 61 243 61 193 l 61 607 q 131 779 61 709 q 304 850 202 850 l 425 850 q 597 779 525 850 q 668 607 668 707 l 668 243 m 437 924 l 364 1025 l 292 924 l 218 924 l 315 1093 l 412 1093 l 510 924 l 437 924 z "},"õ":{"ha":729,"x_min":61,"x_max":668,"o":"m 547 486 q 537 533 547 511 q 511 572 528 555 q 472 597 494 588 q 425 607 450 607 l 304 607 q 257 597 279 607 q 218 572 235 588 q 192 533 201 555 q 182 486 182 511 l 182 364 q 192 317 182 339 q 218 278 201 295 q 257 252 235 262 q 304 243 279 243 l 425 243 q 473 252 451 243 q 512 278 496 262 q 538 316 528 294 q 547 364 547 338 l 547 486 m 668 243 q 651 149 668 192 q 597 71 634 106 q 425 0 526 0 l 304 0 q 131 71 203 0 q 78 150 95 106 q 61 243 61 193 l 61 607 q 131 779 61 709 q 304 850 202 850 l 425 850 q 597 779 525 850 q 668 607 668 707 l 668 243 m 547 972 q 491 935 522 947 q 425 924 460 924 q 364 947 401 924 q 304 972 328 972 q 238 961 269 972 q 182 924 207 949 l 182 1021 q 238 1058 207 1046 q 304 1069 269 1069 q 331 1063 316 1069 q 364 1044 347 1057 q 398 1027 382 1033 q 425 1021 414 1021 q 547 1069 496 1021 l 547 972 z "},"ö":{"ha":729,"x_min":61,"x_max":668,"o":"m 547 486 q 537 533 547 511 q 511 572 528 555 q 472 597 494 588 q 425 607 450 607 l 304 607 q 257 597 279 607 q 218 572 235 588 q 192 533 201 555 q 182 486 182 511 l 182 364 q 192 317 182 339 q 218 278 201 295 q 257 252 235 262 q 304 243 279 243 l 425 243 q 473 252 451 243 q 512 278 496 262 q 538 316 528 294 q 547 364 547 338 l 547 486 m 668 243 q 651 149 668 192 q 597 71 634 106 q 425 0 526 0 l 304 0 q 131 71 203 0 q 78 150 95 106 q 61 243 61 193 l 61 607 q 131 779 61 709 q 304 850 202 850 l 425 850 q 597 779 525 850 q 668 607 668 707 l 668 243 m 182 924 l 182 1044 l 304 1044 l 304 924 l 182 924 m 425 924 l 425 1044 l 547 1044 l 547 924 l 425 924 z "},"÷":{"ha":607,"x_min":61,"x_max":547,"o":"m 218 85 l 218 256 l 389 256 l 389 85 l 218 85 m 61 376 l 61 473 l 547 473 l 547 376 l 61 376 m 218 596 l 218 765 l 389 765 l 389 596 l 218 596 z "},"ø":{"ha":729,"x_min":0,"x_max":729,"o":"m 476 597 q 452 605 465 603 q 425 607 439 607 l 304 607 q 257 597 279 607 q 218 572 235 588 q 192 533 201 555 q 182 486 182 511 l 182 364 q 211 286 182 321 l 476 597 m 547 486 q 518 566 547 530 l 253 254 q 278 246 264 249 q 304 243 291 243 l 425 243 q 473 252 451 243 q 512 278 496 262 q 538 316 528 294 q 547 364 547 338 l 547 486 m 644 714 q 668 607 668 663 l 668 243 q 651 149 668 192 q 597 71 634 106 q 425 0 526 0 l 304 0 q 114 92 187 0 l 36 0 l 0 36 l 85 138 q 61 243 61 186 l 61 607 q 131 779 61 709 q 304 850 202 850 l 425 850 q 531 828 484 850 q 615 760 578 806 l 693 850 l 729 814 l 644 714 z "},"ù":{"ha":729,"x_min":61,"x_max":668,"o":"m 668 243 q 651 149 668 192 q 597 71 634 106 q 425 0 526 0 l 304 0 q 131 71 203 0 q 78 150 95 106 q 61 243 61 193 l 61 850 l 182 850 l 182 364 q 192 317 182 339 q 218 278 201 295 q 257 252 235 262 q 304 243 279 243 l 425 243 q 473 252 451 243 q 512 278 496 262 q 538 316 528 294 q 547 364 547 338 l 547 850 l 668 850 l 668 243 m 328 924 l 231 1093 l 328 1093 l 401 924 l 328 924 z "},"ú":{"ha":729,"x_min":61,"x_max":668,"o":"m 668 243 q 651 149 668 192 q 597 71 634 106 q 425 0 526 0 l 304 0 q 131 71 203 0 q 78 150 95 106 q 61 243 61 193 l 61 850 l 182 850 l 182 364 q 192 317 182 339 q 218 278 201 295 q 257 252 235 262 q 304 243 279 243 l 425 243 q 473 252 451 243 q 512 278 496 262 q 538 316 528 294 q 547 364 547 338 l 547 850 l 668 850 l 668 243 m 401 924 l 328 924 l 401 1093 l 498 1093 l 401 924 z "},"û":{"ha":729,"x_min":61,"x_max":668,"o":"m 668 243 q 651 149 668 192 q 597 71 634 106 q 425 0 526 0 l 304 0 q 131 71 203 0 q 78 150 95 106 q 61 243 61 193 l 61 850 l 182 850 l 182 364 q 192 317 182 339 q 218 278 201 295 q 257 252 235 262 q 304 243 279 243 l 425 243 q 473 252 451 243 q 512 278 496 262 q 538 316 528 294 q 547 364 547 338 l 547 850 l 668 850 l 668 243 m 437 924 l 364 1025 l 292 924 l 218 924 l 315 1093 l 412 1093 l 510 924 l 437 924 z "},"ü":{"ha":729,"x_min":61,"x_max":668,"o":"m 668 243 q 651 149 668 192 q 597 71 634 106 q 425 0 526 0 l 304 0 q 131 71 203 0 q 78 150 95 106 q 61 243 61 193 l 61 850 l 182 850 l 182 364 q 192 317 182 339 q 218 278 201 295 q 257 252 235 262 q 304 243 279 243 l 425 243 q 473 252 451 243 q 512 278 496 262 q 538 316 528 294 q 547 364 547 338 l 547 850 l 668 850 l 668 243 m 182 924 l 182 1044 l 304 1044 l 304 924 l 182 924 m 425 924 l 425 1044 l 547 1044 l 547 924 l 425 924 z "},"ý":{"ha":729,"x_min":61,"x_max":668,"o":"m 668 -122 q 651 -216 668 -174 q 597 -294 634 -259 q 425 -366 526 -366 l 304 -366 l 304 -122 l 425 -122 q 473 -113 451 -122 q 512 -87 496 -103 q 538 -48 528 -71 q 547 0 547 -26 l 547 82 q 503 20 545 43 q 467 4 486 9 q 425 0 447 0 l 304 0 q 132 72 202 0 q 61 243 61 143 l 61 850 l 182 850 l 182 364 q 192 317 182 339 q 218 278 201 295 q 257 252 235 262 q 304 243 279 243 l 425 243 q 473 252 451 243 q 512 278 496 262 q 538 316 528 294 q 547 364 547 338 l 547 850 l 668 850 l 668 -122 m 401 924 l 328 924 l 401 1093 l 498 1093 l 401 924 z "},"þ":{"ha":729,"x_min":61,"x_max":668,"o":"m 547 364 q 537 412 547 389 q 511 451 528 434 q 472 477 494 467 q 425 486 450 486 l 182 486 l 182 243 l 425 243 q 472 252 450 243 q 511 278 494 262 q 537 317 528 295 q 547 364 547 339 m 668 243 q 597 72 668 144 q 425 0 525 0 l 182 0 l 182 -243 l 61 -243 l 61 972 l 182 972 l 182 729 l 425 729 q 518 711 475 729 q 597 657 561 692 q 668 486 668 585 l 668 243 z "},"ÿ":{"ha":729,"x_min":61,"x_max":668,"o":"m 668 -122 q 651 -216 668 -174 q 597 -294 634 -259 q 425 -366 526 -366 l 304 -366 l 304 -122 l 425 -122 q 473 -113 451 -122 q 512 -87 496 -103 q 538 -48 528 -71 q 547 0 547 -26 l 547 82 q 503 20 545 43 q 466 4 486 9 q 425 0 446 0 l 304 0 q 132 72 202 0 q 61 243 61 143 l 61 850 l 182 850 l 182 364 q 192 317 182 339 q 218 278 201 295 q 257 252 235 262 q 304 243 279 243 l 425 243 q 473 252 451 243 q 512 278 496 262 q 538 316 528 294 q 547 364 547 338 l 547 850 l 668 850 l 668 -122 m 182 924 l 182 1044 l 304 1044 l 304 924 l 182 924 m 425 924 l 425 1044 l 547 1044 l 547 924 l 425 924 z "},"¯":{"ha":547,"x_min":0,"x_max":547,"o":"m 0 850 l 0 972 l 547 972 l 547 850 l 0 850 z "},"ˉ":{"ha":547,"x_min":0,"x_max":547,"o":"m 0 850 l 0 972 l 547 972 l 547 850 l 0 850 z "},"ı":{"ha":243,"x_min":61,"x_max":182,"o":"m 61 0 l 61 850 l 182 850 l 182 0 l 61 0 z "},"ˇ":{"ha":412,"x_min":61,"x_max":353,"o":"m 256 802 l 158 802 l 61 972 l 134 972 l 207 869 l 279 972 l 353 972 l 256 802 z "},"˘":{"ha":1371,"x_min":61,"x_max":1310,"o":"m 465 293 l 465 518 l 543 518 l 543 293 l 465 293 m 812 160 l 521 160 l 547 220 l 790 220 l 694 456 l 693 456 l 693 517 l 760 517 l 760 693 l 465 693 l 465 911 l 329 911 l 329 456 l 151 456 l 151 61 l 852 61 l 812 160 m 1244 146 q 1092 236 1244 236 l 961 236 l 961 296 l 1104 296 q 1143 301 1125 296 q 1177 317 1161 307 q 1203 344 1194 330 q 1213 378 1213 359 q 1171 440 1213 420 q 1136 452 1155 449 q 1093 456 1116 456 l 757 456 l 921 60 l 1092 60 q 1150 62 1125 60 q 1190 72 1175 64 q 1244 146 1244 92 m 1310 136 q 1251 33 1310 71 q 1132 0 1204 0 l 90 0 l 90 515 l 267 515 l 267 911 l 122 911 l 122 839 l 61 839 l 72 972 l 597 972 l 597 911 l 530 911 l 530 753 l 822 753 l 822 515 l 1197 515 l 1197 633 l 1257 633 l 1257 456 l 1253 456 q 1271 423 1264 441 q 1278 382 1278 405 q 1260 314 1278 342 q 1207 269 1242 287 q 1310 136 1310 237 m 1194 793 l 1185 909 l 940 909 l 940 753 l 1071 753 l 1071 818 l 1131 818 l 1131 627 l 1071 627 l 1071 692 l 878 692 l 878 971 l 1253 971 l 1253 793 l 1194 793 z "},"˚":{"ha":412,"x_min":61,"x_max":353,"o":"m 304 827 q 297 864 304 846 q 276 895 289 882 q 244 916 262 908 q 207 924 227 924 q 169 916 186 924 q 138 895 151 908 q 117 864 125 882 q 110 827 110 846 q 117 788 110 806 q 138 757 125 770 q 169 736 151 744 q 207 729 186 729 q 244 736 227 729 q 276 757 262 744 q 297 788 289 770 q 304 827 304 806 m 353 827 q 310 724 353 766 q 207 681 269 681 q 150 691 176 681 q 103 724 124 702 q 61 827 61 766 q 103 929 61 887 q 150 961 124 950 q 207 972 176 972 q 263 961 237 972 q 310 929 289 950 q 353 827 353 886 z "},"−":{"ha":607,"x_min":61,"x_max":547,"o":"m 61 376 l 61 473 l 547 473 l 547 376 l 61 376 z "}," ":{"ha":547,"x_min":0,"x_max":0,"o":""}}}
